<svg xmlns="http://www.w3.org/2000/svg" viewBox="0 0 183.04 170.49"><defs><style>.cls-1{fill:#e3b678;}.cls-1,.cls-10,.cls-11,.cls-2,.cls-3,.cls-8,.cls-9{fill-rule:evenodd;}.cls-2{fill:#d6a35e;}.cls-3{fill:#ffcc87;}.cls-4{fill:#754c24;}.cls-5{fill:#c28f4a;}.cls-6{fill:#ccc;}.cls-7{fill:#666;}.cls-8{fill:#b3b3b3;}.cls-9{fill:#dedede;}.cls-10{fill:#356585;}.cls-11{fill:#2e5773;}</style></defs><title>Asset 1</title><g id="Layer_2" data-name="Layer 2"><g id="Layer_2-2" data-name="Layer 2"><path class="cls-1" d="M10,96.14C13.8,98.66,29,114.41,35.9,118.05c2,1,7.55,3,9.4,3.71a3.39,3.39,0,0,1,1.09.66l0,0a3.24,3.24,0,0,0,3.76.45c.6-.32,1.31-.72,2.12-1.19,5.87-3.32,16.37-9.76,21.2-15.69l.47-.6c6.62-8.77,6.88-13.73,6.88-13.73L70.54,79.37l-1.6.24c-1.61-2.34-4.88-.06-7.79,1.2-6,3.18-9.79,9.48-12.76,16.73-.24.63-.53,1.36-.79,2-.18.45-.34.89-.47,1.23l-.32.87C36.45,96.57,28.65,99.32,15,90.89l-2.85,2.84v0Z"/><path class="cls-2" d="M10,96.14C13.8,98.66,29,114.41,35.9,118.05c2,1,7.55,3,9.4,3.71a3.39,3.39,0,0,1,1.09.66l0,0a3.24,3.24,0,0,0,3.76.45c.6-.32,1.31-.72,2.12-1.19,5.87-3.32,16.37-9.76,21.2-15.69l.47-.6c6.62-8.77,6.88-13.73,6.88-13.73L70.54,79.37l-1.6.24-.81,1.87c.52,3.41-6.07,18.21-19.74,16.06-.24.63-.53,1.36-.79,2-.18.45-.34.89-.47,1.23l-.32.87s7.95,7.48,8.48,9.9.6,6.4-3.94,5.35c-10.07-2.31-33-16.93-39.16-23.18Z"/><path class="cls-3" d="M49.9,104.88l.43-.92c.17-.36.38-.83.61-1.31.34-.72.73-1.49,1-2.16,3.88-7.69,6.07-15.1,12.87-18.07,1.63-.56.82-3.43-3.7-1.61-6,3.18-9.79,9.48-12.76,16.73-.24.63-.53,1.36-.79,2-.18.45-.34.89-.47,1.23l-.32.87C39.29,98,32.8,98.35,24,95.29,34,100.06,41.51,99.9,49.9,104.88Z"/><path class="cls-1" d="M61.15,80.81s4.33-1,7,.67a3.69,3.69,0,0,1,.63.47c5.32,4.83,13.07,24,19.23,27.92l.24,12.51s-2.24,5-3,6.67c-2,4.84-1.4,15.49-1.4,15.49h57.22s-1.55-9-1.69-12.26c-.73-18,10.89-47,10.84-53.19L147.3,70l-5.43-25.85S119,45.29,113.66,42c-2.81-1.75-8.18-10.91-8.18-10.91L97,30.29,92.49,33l.15,11.09L89.3,55.54l-6.42,5.64C70.62,61.73,62.09,68.25,61.15,80.81Z"/><path class="cls-3" d="M83.73,64.21l5.61-6.44.75-4.93-.79,2.7-6.42,5.64c-12.26.55-20.79,7.07-21.73,19.63a14.08,14.08,0,0,1,4-.24C66.79,71.56,73.7,66,83.73,64.21Z"/><path class="cls-3" d="M89.44,131.16c.48-1.76,2-7,2-7S89,110.34,88,109.87l.24,12.51s-2.24,5-3,6.67c-2,4.84-1.4,15.49-1.4,15.49h5.87C89.23,141.21,88.47,134.8,89.44,131.16Z"/><path class="cls-2" d="M135.52,98.5s-8,26.64-7.22,34.86c.24,2.7,2.23,11.17,2.23,11.17h10.56s-1.55-9-1.69-12.26c-.73-18,10.89-47,10.84-53.19L147.3,70l-6.21-2.78s-1.16,20.21-9.69,27.05c-4,3.22-15.86,3.71-23.3-.92C109.45,97.27,122.69,101.49,135.52,98.5Z"/><path class="cls-2" d="M90.36,51.91c6.13-2.52,9.77-2.33,11.43,1.15,1.89,4,3.24,7.94,4.57,11.49,2-4.41,16.4-13.63,19.06-15.18-.89.29-13.12,7.11-18.4,5.64-1.66-.47-3.43-5.07-2.35-10.38a18.55,18.55,0,0,1,3.9-8.47L95.22,26,92.31,45.21Z"/><path class="cls-2" d="M108.81,127.84c.37-.92-1.18-3.34-4.68-.51C105.78,127.13,108.14,127.29,108.81,127.84Z"/><path class="cls-2" d="M68.13,81.48a3.69,3.69,0,0,1,.63.47c5.32,4.83,13.07,24,19.23,27.92,2.34-2.63,14-10.4,16.14-15.57,2.37-5.64,1.34-21.12-.87-25.3,0,2.29.5,19-2.83,22.61-3,3.27-13.6,9-17.37,6.06S72.59,81.45,68.13,81.48Z"/><path class="cls-1" d="M110.39,29.81l-7.14-1.73-1.94,1.66a0,0,0,0,1,0,0l-2.13,1.81-.18.15-1,.85,0,0,1.38,3.25a6.31,6.31,0,0,1-2.28,7.64L88.63,49.2l-4.06,2.44A2,2,0,0,1,82,51.13l-.69-.92-1.42-1.89-2.18-2.87-3.87,0a1.3,1.3,0,0,1-1.24-.92,1.08,1.08,0,0,1-.06-.48l.56-7.31.08-1.08,0-.16a2.5,2.5,0,0,0-1.21-2.38L71.78,33a5.18,5.18,0,0,1-.62-.33,6.92,6.92,0,0,1-1-.72h0a3.44,3.44,0,0,1-1-1.18,19.21,19.21,0,0,1-2-9.49c.31-4.83,3.81-12,9.21-16a16.1,16.1,0,0,1,3.2-1.82C91.21-1.4,104.3,3.2,109.31,15.12A24,24,0,0,1,110.39,29.81Z"/><path class="cls-1" d="M74.56,36.8l.2-1.29,0-.19a3,3,0,0,0-1.23-3l-.18-.13a7.09,7.09,0,0,1-.71-.44,9.82,9.82,0,0,1-1.19-1h0a4.2,4.2,0,0,1-1-1.5,23.17,23.17,0,0,1-1.47-11.52,23.49,23.49,0,0,1,2.8-7.74c-2.69,3.69-4.36,8-4.57,11.22a19.21,19.21,0,0,0,2,9.49,3.44,3.44,0,0,0,1,1.18h0a6.92,6.92,0,0,0,1,.72,5.92,5.92,0,0,0,.61.33l.17.09a2.5,2.5,0,0,1,1.21,2.38l0,.16-.08,1.08L72.49,44a1.08,1.08,0,0,0,.06.48,1.33,1.33,0,0,0,.7.79Z"/><path class="cls-1" d="M110.39,29.81l-7.14-1.73-1.94,1.66a0,0,0,0,1,0,0l-2.13,1.81-.18.15-1,.85,0,0,1.38,3.25a6.31,6.31,0,0,1-2.28,7.64L88.63,49.2l-4.06,2.44A2,2,0,0,1,82,51.13l-.69-.92-1.42-1.89-2.18-2.87-3.87,0a1.3,1.3,0,0,1-1.24-.92,1.08,1.08,0,0,1-.06-.48l.56-7.31.08-1.08,0-.16a2.5,2.5,0,0,0-1.21-2.38L71.78,33a5.18,5.18,0,0,1-.62-.33,6.92,6.92,0,0,1-1-.72h0a3.44,3.44,0,0,1-1-1.18,19.21,19.21,0,0,1-2-9.49c.31-4.83,3.81-12,9.21-16a16.1,16.1,0,0,1,3.2-1.82C91.21-1.4,104.3,3.2,109.31,15.12A24,24,0,0,1,110.39,29.81Z"/><path class="cls-3" d="M74.56,36.8l.2-1.29,0-.19a3,3,0,0,0-1.23-3l-.18-.13a7.09,7.09,0,0,1-.71-.44,9.82,9.82,0,0,1-1.19-1h0a4.2,4.2,0,0,1-1-1.5,23.17,23.17,0,0,1-1.47-11.52,23.49,23.49,0,0,1,2.8-7.74c-2.69,3.69-4.36,8-4.57,11.22a19.21,19.21,0,0,0,2,9.49,3.44,3.44,0,0,0,1,1.18h0a6.92,6.92,0,0,0,1,.72,5.92,5.92,0,0,0,.61.33l.17.09a2.5,2.5,0,0,1,1.21,2.38l0,.16-.08,1.08L72.49,44a1.08,1.08,0,0,0,.06.48,1.33,1.33,0,0,0,.7.79Z"/><path class="cls-4" d="M67.16,21.28a16.37,16.37,0,0,0,8.13-1.13,74.14,74.14,0,0,0,7.32-3.48,4,4,0,0,1,5.64,1.9l4.24,10.09,3.58-1.51c2.35,5.11,7.05,8.21,12.81,8.88a7.3,7.3,0,0,1,.27-1c.57-1.67,1.13-3.47,1.58-5.34a24,24,0,0,0-1-14.72c-5-11.92-16-18.7-30.17-12.76C68.45,6.84,66.57,17,67.16,21.28Z"/><path class="cls-1" d="M98.14,33l1.15-.78a5.79,5.79,0,0,0,2-7l-.4-.94a3,3,0,0,0-4-1.62l-.46.19a2.44,2.44,0,0,0-1.3,3.2Z"/><path class="cls-1" d="M130.39,56.94c.33,4.68,5.59,14.22,12.24,17.69,5.76,15.09,17.06,15.85,21.68,19.82-7,21-5.06,37.14-14.34,46.48-1.22,1.22-2.47,7-1.68,8.59.4.79,2,1.09,2,1.09a18.6,18.6,0,0,0,.37,3.14c.18.6.77,2.13,1.39,2.1,1.72-.1,2-1,2.71-.91.44.05.92,1.7,1.64,1.66,1.47-.08,1.67-1.48,2.34-1.4.42.05.54,1.24,1.23,1.2,1.5-.09,1.91-1.94,2.57-2s.77,1,2.38.93c2.05-.12,1.25-14.24,1.25-14.24.81-7.79,15-25.14,15.64-40.51.1-2.53,1.55-5.16,1.17-6.38-2.55-7.89-7.41-20.45-13.62-26.73-1.46-1.47-2.13-2-4.38-4.15-1.39-1.34-3.68-3-4.45-4.07-2.44-3.25-4.81-8.74-10.79-13.35-5.29-4.07-15.78-.79-18,4.08a14.72,14.72,0,0,0-1.4,5.68c0,.25,0,.51,0,.77A4,4,0,0,0,130.39,56.94Z"/><path class="cls-2" d="M130.39,56.94c.33,4.68,5.59,14.22,12.24,17.69,5.76,15.09,17.06,15.85,21.68,19.82-7,21-5.08,36.81-14.34,46.48-1.2,1.24-2.47,7-1.68,8.59.4.79,2,1.09,2,1.09-.3-5.1,2.19-10.59,5.48-10.38a2.15,2.15,0,0,0,2.32-1.57c1.34-5.24,3.23-8.84,3.91-11,1.18-3.83,8-28.21,8.16-33-3.84-1.15-17.7-6-20.48-19.62-3.52-2.52-17.15-7.35-19.3-19.29,0,.25,0,.51,0,.77A4,4,0,0,0,130.39,56.94Z"/><rect class="cls-5" x="8.06" y="76.91" width="8.42" height="9" transform="translate(-64.44 51.53) rotate(-60.15)"/><path class="cls-1" d="M17.48,93.84l3.16-6.56A4.14,4.14,0,0,0,21,84.71L20,80.13a1.1,1.1,0,0,0-.44-.67L13.24,75a.41.41,0,0,0-.65.28l-.06.43A4.68,4.68,0,0,0,14.14,80l2.28,1.94c-5.66,5-5.49,9.73-6.42,14.25Z"/><path class="cls-2" d="M10,96.16,3.79,82.22A2.38,2.38,0,0,1,4,79.87l4.21-5.66a1.43,1.43,0,0,1,1.95-.37l2.76,1.84a1.43,1.43,0,0,1,.48,1.82l-2.68,5.39c-2.24-1.21-2.4-2.32-1.22-4.63L7.93,81s5.79,5.62,6.57,7.35a6.89,6.89,0,0,1-.92,6.74Z"/><circle class="cls-6" cx="18.27" cy="80.81" r="18.27" transform="translate(-28.96 12.74) rotate(-22.02)"/><circle class="cls-7" cx="18.27" cy="80.81" r="14.9" transform="translate(-29.53 13.14) rotate(-22.5)"/><circle class="cls-6" cx="18.27" cy="80.81" r="13.2" transform="translate(-30.32 13.71) rotate(-23.17)"/><path class="cls-8" d="M25.18,80.81a6.91,6.91,0,1,1-6.91-6.91A6.91,6.91,0,0,1,25.18,80.81Z"/><path class="cls-9" d="M21.57,80.81a3.3,3.3,0,1,1-3.3-3.31A3.3,3.3,0,0,1,21.57,80.81Z"/><path class="cls-10" d="M83.87,144.54a77.57,77.57,0,0,0,4.47,26h56.87s-.79-17.65-4.12-26Z"/><path class="cls-11" d="M141.09,144.54H130.68c2.88,7.32,11.5,14.88,11.56,26h3S144.42,152.84,141.09,144.54Z"/><path class="cls-11" d="M98.37,159.93a49.36,49.36,0,0,1,11.71,10.56h-7.53Z"/></g></g></svg>