<svg xmlns="http://www.w3.org/2000/svg" viewBox="0 0 126.16 222.23"><defs><style>.cls-1{fill:#666;}.cls-2{fill:#999;}.cls-3{fill:gray;}.cls-4{fill:#707070;}.cls-5{fill:#e3b678;}.cls-12,.cls-13,.cls-5,.cls-6{fill-rule:evenodd;}.cls-6,.cls-7{fill:#d6a35e;}.cls-8{fill:#428bbc;}.cls-9{fill:#ccc;}.cls-10{fill:#2f6487;}.cls-11{fill:#754c24;}.cls-12{fill:#356585;}.cls-13{fill:#2f5975;}</style></defs><title>Asset 6</title><g id="Layer_2" data-name="Layer 2"><g id="Layer_2-2" data-name="Layer 2"><rect class="cls-1" x="63.08" y="13.67" width="63.08" height="4.35"/><rect class="cls-2" x="63.08" y="14.25" width="63.08" height="0.79"/><rect class="cls-3" x="110.13" width="3.48" height="31.46"/><rect class="cls-2" x="110.13" y="1.56" width="3.48" height="2.7"/><rect class="cls-4" x="113.61" y="5.59" width="3.23" height="20.27"/><rect class="cls-2" x="113.61" y="6.82" width="3.23" height="2.5"/><rect class="cls-1" y="13.67" width="63.08" height="4.35"/><rect class="cls-2" y="14.25" width="63.08" height="0.79"/><rect class="cls-3" x="12.55" width="3.48" height="31.46"/><rect class="cls-2" x="12.55" y="1.56" width="3.48" height="2.7"/><rect class="cls-4" x="9.32" y="5.59" width="3.23" height="20.27"/><rect class="cls-2" x="9.32" y="6.82" width="3.23" height="2.5"/><path class="cls-5" d="M59.07,157.12c-1.25,3-.31,5.44-.72,7.37-1.28,6-6.47,11.69-7,15.86-.17,1.23,1.12,6.36.62,8.48-.27,1.13-2,5.14-3.48,9.4C47.14,202,46,206,46.09,208.29c.24,5,.59,4.62,0,6l-6.52-4.49c.84-5.3-1.37-20.85.42-26.94.74-2.52,3.17-6.12,3.82-9.73s-.73-14.35,0-21.46c.67-6.35,2.39-18.12,3.91-21.45a10.5,10.5,0,0,1,5,.15A19,19,0,0,1,61,135.06h0c1.76,1.75,2.93,3.76,2.93,5.71C63.93,145.4,60.32,154.12,59.07,157.12Z"/><path class="cls-6" d="M59.07,157.12c-1.25,3-.31,5.44-.72,7.37-1.28,6-6.47,11.69-7,15.86-.17,1.23,1.12,6.36.62,8.48-.27,1.13-2,5.14-3.48,9.4A64.12,64.12,0,0,0,50,189c.06-2.11-1.43-6.27-1.19-8.37.12-1,1.3-2.86,1.49-3.88s-.27-2.85,0-3.74c.61-2,4-4.9,4.64-6.88.55-1.82-.25-5.73,0-7.63.76-6,6.06-23.39,6.06-23.39h0c1.76,1.75,2.93,3.76,2.93,5.71C63.93,145.4,60.32,154.12,59.07,157.12Z"/><path class="cls-5" d="M88.3,209.78c-.84-5.3,1.36-20.85-.42-26.94-.74-2.52-3.17-6.11-3.83-9.73s.74-14.35,0-21.45c-.66-6.37-2.38-18.13-3.9-21.46a10.67,10.67,0,0,0-5,.15c-5.31,1.35-11.21,6-11.21,10.43,0,4.63,3.61,13.34,4.86,16.33s.3,5.45.71,7.38c1.28,6,6.48,11.69,7,15.86.16,1.24-1.12,6.36-.62,8.48s6.1,14.47,5.86,19.46-.6,4.62,0,6Z"/><path class="cls-6" d="M88.3,209.78c-.84-5.3,1.36-20.85-.42-26.94-.74-2.52-3.17-6.11-3.83-9.73s.74-14.35,0-21.45c-.66-6.37-2.38-18.13-3.9-21.46a10.67,10.67,0,0,0-5,.15,20.79,20.79,0,0,1,4.41,9c.7,3.17,3.7,14.83-.93,27.66.8.4,2.74.92,1.93,4.32.65-.66,1.46.2,1.92,1s1.86,7.69,2.25,9.28c2.08,8.51-.39,26.21,0,28.46l.8,1.62Z"/><rect class="cls-7" x="57.88" y="63.37" width="12.1" height="18.4"/><path class="cls-5" d="M87.45,78.6S86.08,90.22,85.26,94c-.52,2.39-2.24,6.12-3.55,9.42-.4,1-.76,2-1,2.87a15.63,15.63,0,0,0-.43,1.65c-.85,4.26-1.71,17.34-1.71,17.34H49.34s-.86-13.08-1.71-17.34c-.72-3.64-4.24-10.32-5-13.94-.82-3.78-2.19-15.4-2.19-15.4l6.39-8,4-3,.27.14c4.14,2.19,8.44,6.75,12.86,13.15,4.42-6.4,8.72-11,12.86-13.15l.27-.14,3.4,3.61Z"/><path class="cls-8" d="M47.59,209.66v3.42L45,215.85l-1.33,1.4L39,221.1H31.59L31,220c-.33-1.69,1.93-3.5,5.08-5.36l1.64-3.55.1-.23.1-.24c.22-.53.42-1,.56-1.33,0-.09,8.09-.44,8.09-.44a1.29,1.29,0,0,1,.48.1A.82.82,0,0,1,47.59,209.66Z"/><path class="cls-9" d="M47.59,214.31a1.13,1.13,0,0,1-.54.95c-2.32,1.57-5.18,4.66-8.43,6.06a12.27,12.27,0,0,1-5.54.66c-1.3-.06-2.42-1.49-2.11-2.38.49,2.46,5.88,1.55,8.32.38,2.8-1.34,5.59-5.56,8.3-6.9Z"/><path class="cls-8" d="M36.42,215.35s2.08-5.54,2.86-6.52a3,3,0,0,1,2.8-1.05c1.18,0,2.92.52,2.92,1.32s-6.56,6.46-6.56,6.46Z"/><path class="cls-10" d="M47.05,209c-1.76,1.94-6.8,7.91-10.65,7.62-.73,0-1-.86-.34-1.95.34-.57,1-2.17,1.64-3.53,0-.08.07-.15.1-.23l.1-.24c.17-.41.52-1.22.67-1.59a.33.33,0,0,1,.31-.18h.32c.23,0,.39.2.3.37-.83,1.66-2.91,5.95-2,5.93.62,0,3.79-3.25,5.72-5.29a3.54,3.54,0,0,1,2.53-1h.8A1.29,1.29,0,0,1,47.05,209Z"/><path class="cls-10" d="M43.89,214.9A11.16,11.16,0,0,1,46.42,213h0v-2.74A6.64,6.64,0,0,0,43.89,214.9Z"/><path class="cls-9" d="M38.74,215.27h-.05l-2.14-.39a.21.21,0,0,1-.18-.17.19.19,0,0,1,.16-.18l1.14-.29-.72-.77a.16.16,0,0,1,0-.18.25.25,0,0,1,.17-.12l1.33-.19-1-.69a.17.17,0,0,1-.07-.19.2.2,0,0,1,.17-.13l2-.31-1.27-.9a.17.17,0,0,1-.07-.18.22.22,0,0,1,.17-.14l1.61-.28-1.1-.63a.17.17,0,0,1-.08-.21.21.21,0,0,1,.22-.13l5.28.24a.2.2,0,0,1,.21.16.19.19,0,0,1-.17.2l-3.26.56,1.53.89a.16.16,0,0,1,.09.19.22.22,0,0,1-.18.14l-2,.31,1,.7a.15.15,0,0,1,.07.18.22.22,0,0,1-.18.14l-2,.3.72.5a.17.17,0,0,1,.07.18.21.21,0,0,1-.15.14l-1.65.41.48.52a.17.17,0,0,1,.09.14.22.22,0,0,1-.23.19Zm-1.27-.61.72.13-.23-.25Zm.06-1.19.59.64,1.42-.35-.69-.49Zm.56-1.22.9.63,1.89-.29L40,212Zm.83-1.54,1.19.85,1.82-.28-1.44-.84Zm.86-1.13.81.47,2-.34Z"/><path class="cls-8" d="M80.64,209.63v3.49l2.61,2.82,1.33,1.43,4.65,3.92h7.41l.59-1.14c.33-1.72-1.93-3.57-5.08-5.47l-1.64-3.61c0-.07-.06-.15-.1-.23l-.1-.25-.56-1.36c0-.09-8.09-.45-8.09-.45a1.29,1.29,0,0,0-.48.1A.85.85,0,0,0,80.64,209.63Z"/><path class="cls-9" d="M80.64,214.37a1.18,1.18,0,0,0,.54,1c2.32,1.6,5.18,4.75,8.43,6.18a12,12,0,0,0,5.54.67c1.3-.06,2.42-1.52,2.11-2.43-.49,2.51-5.88,1.59-8.32.39-2.8-1.37-5.59-5.67-8.3-7Z"/><path class="cls-8" d="M91.81,215.43s-2.08-5.64-2.86-6.65a3,3,0,0,0-2.8-1.07c-1.18,0-2.92.54-2.92,1.35s6.56,6.58,6.56,6.58Z"/><path class="cls-10" d="M81.18,208.9c1.76,2,6.8,8.08,10.65,7.78.73,0,1-.88.34-2-.34-.59-1-2.21-1.64-3.6,0-.08-.07-.15-.1-.23l-.1-.25L89.66,209a.33.33,0,0,0-.31-.18H89c-.24,0-.4.2-.31.38.83,1.68,2.91,6.06,2,6-.62,0-3.79-3.32-5.72-5.39a3.46,3.46,0,0,0-2.53-1h-.8A1.28,1.28,0,0,0,81.18,208.9Z"/><path class="cls-10" d="M83.17,215a11.59,11.59,0,0,0-2.53-1.92h0v-2.8A6.87,6.87,0,0,1,83.17,215Z"/><path class="cls-9" d="M89.48,215.35a.21.21,0,0,1-.22-.19.16.16,0,0,1,.09-.15l.47-.52-1.64-.43a.21.21,0,0,1-.16-.14.19.19,0,0,1,.07-.18l.72-.51-2-.31a.2.2,0,0,1-.18-.13.18.18,0,0,1,.07-.19l1-.72-2-.32a.21.21,0,0,1-.18-.14.17.17,0,0,1,.09-.19l1.53-.91-3.26-.57a.19.19,0,0,1-.17-.2.22.22,0,0,1,.21-.17l5.28-.23a.19.19,0,0,1,.22.12.17.17,0,0,1-.08.21l-1.1.66,1.61.28a.21.21,0,0,1,.17.13.18.18,0,0,1-.07.19l-1.27.92,2,.32a.2.2,0,0,1,.17.13.17.17,0,0,1-.07.19l-1,.7,1.33.2a.25.25,0,0,1,.17.12.15.15,0,0,1,0,.18l-.72.79,1.14.29a.2.2,0,0,1,.16.19c0,.08-.08.15-.18.17l-2.14.4h-.06Zm.8-.74-.24.26.72-.14Zm-.9-1.3-.69.5,1.42.36.59-.65ZM88.25,212l-.9.65,1.9.29.89-.64Zm-.51-1.54-1.44.85,1.82.29,1.19-.86Zm-2.1-.75,2,.35.81-.48Z"/><path class="cls-6" d="M53.07,85.08c-.16,2.11-2.89,4.67-4.24,6.26,1.08-2.32,2.29-5,2.29-6.74,0-2.87-2.34-10.37-3.57-14l3.25-3,.27.14C51.7,72.27,53.19,83.41,53.07,85.08Z"/><path class="cls-5" d="M50.8,67.58,47.62,71,40.41,78.6c-5.32-11.49-7.94-21.89-7.31-27,.17-1.34-3.58-8.18-2.93-12.64.82-5.5,2-17.16,2-17.16L32,18h4.83a11.7,11.7,0,0,1,3.07-1.35c.51,0,.59-1.37.58-2.37a1,1,0,0,1,1-1h0a1,1,0,0,1,1,.88c.09.82.21,2.08.22,3.26a6.92,6.92,0,0,1-.33,2.7c-.64,1.27-4.54,3.47-4.54,3.47s4.32,13.08,3.93,17.44c-.22,2.45-1.35,8.24-.9,9.8s5.63,5.88,6.39,8.07S50.8,67.58,50.8,67.58Z"/><path class="cls-6" d="M63.93,91.34s-3,4.13-6,4.47c2,.22,6-1.46,6-1.46S68,96,70,95.81C67,95.47,63.93,91.34,63.93,91.34Z"/><path class="cls-5" d="M93.86,51.58c.63,5.13-1.09,15.53-6.41,27l-3.22-3.42-7.17-7.6s2.85-6.6,3.57-8.65c.76-2.2,5-6.5,5.49-8.07A42.72,42.72,0,0,0,87,41.05c-.38-4.36,3-17.44,3-17.44s-3.91-2.2-4.54-3.47-.29-4.39-.11-6a1,1,0,0,1,1-.88h0a1,1,0,0,1,1,1c0,1,.07,2.37.57,2.37A11.79,11.79,0,0,1,91.05,18h4.83l-.19,3.77s.28,11.66,1.1,17.16C97.45,43.4,93.69,50.24,93.86,51.58Z"/><path class="cls-5" d="M72.21,55.39A8.25,8.25,0,0,0,64,48.05h-.22a8.24,8.24,0,0,0-8.19,7.34,6.73,6.73,0,0,0-.06.91v5.75a11.76,11.76,0,0,0,7.12,10.81l.08,0a2.95,2.95,0,0,0,2.33,0l.07,0a11.76,11.76,0,0,0,7.12-10.81V56.3A8.92,8.92,0,0,0,72.21,55.39Z"/><path class="cls-5" d="M73.21,60.48a1.9,1.9,0,0,1-.39,1.15l-1,1.29V58.43h.55a.85.85,0,0,1,.86.86Z"/><path class="cls-5" d="M54.52,60.48a1.85,1.85,0,0,0,.4,1.15l1,1.29V58.43h-.55a.85.85,0,0,0-.86.86Z"/><path class="cls-11" d="M72.26,55.44V61H70.92V55.4a1.89,1.89,0,0,0-2.57-1.77,13.07,13.07,0,0,1-4.43.8,12.79,12.79,0,0,1-4.46-.83,1.89,1.89,0,0,0-2.58,1.77V61H55.53V56.36a8.31,8.31,0,0,1,8.31-8.31H64A8.31,8.31,0,0,1,72.26,55.44Z"/><path class="cls-6" d="M55.15,103.43s-.83-3.29.45-3.88,5.53-.08,6.65-.45,1.68-2,1.68-2v4.34a25.48,25.48,0,0,0-5.44-1.13C55.58,100.29,55.15,103.43,55.15,103.43Z"/><path class="cls-6" d="M72.71,103.43s.82-3.29-.45-3.88-5.53-.08-6.65-.45-1.68-2-1.68-2v4.34a25.35,25.35,0,0,1,5.43-1.13C72.28,100.29,72.71,103.43,72.71,103.43Z"/><path class="cls-6" d="M55.86,106.74a7,7,0,0,0,4.21,1c1.06-.11,3.63.28,3.86-1.74-.11,1.63-.62,2.69-4,2.69S55.86,106.74,55.86,106.74Z"/><path class="cls-6" d="M72,106.74a7,7,0,0,1-4.21,1c-1.06-.11-3.63.28-3.86-1.74.11,1.63.62,2.69,4,2.69S72,106.74,72,106.74Z"/><path class="cls-6" d="M63.93,115.6a1.47,1.47,0,0,1,1.42,1.06,1.23,1.23,0,0,0,.06-.39,1.49,1.49,0,0,0-3,0,1.59,1.59,0,0,0,.06.39A1.49,1.49,0,0,1,63.93,115.6Z"/><path class="cls-6" d="M76.83,116.38c-.2,1-1.85,6-2.83,8.9H71c1.29-3,4.71-9.1,4.91-10.07.22-1.13-.23-3-1.79-6.5C76,110.33,77.1,115,76.83,116.38Z"/><path class="cls-6" d="M56.83,125.28c-1.29-3-4.7-9.1-4.9-10.08s.22-3,1.79-6.5c-1.85,1.63-3,6.28-2.69,7.68.2,1,1.85,6,2.83,8.9Z"/><path class="cls-6" d="M81.71,103.42c-.4,1-.76,2-1,2.87-2.24-4.42-4.7-12.7-5.09-13.57C75.9,93.31,79.57,99.89,81.71,103.42Z"/><path class="cls-6" d="M46.14,103.42c.41,1,.77,2,1,2.87,2.25-4.42,4.71-12.7,5.1-13.57C52,93.31,48.29,99.89,46.14,103.42Z"/><path class="cls-6" d="M93.86,51.58c.63,5.13-1.09,15.53-6.41,27l-1,7.63c-1.53-3.64-3.92-9.1-5.81-10.17C83,74,90.19,66.67,91,63.37c.71-2.77.29-7.88,1-10.66.16-.7,1-2.14.92-2.85s.51-2.7.35-3.34c-.47-1.87,1.49-4.46,1.52-6.39.07-4.37,0-12.94-.15-17.31,0-1.31.23-4.81.23-4.81h1l-.19,3.77s.28,11.66,1.1,17.16C97.45,43.4,93.69,50.24,93.86,51.58Z"/><path class="cls-6" d="M50.8,67.58,47.62,71c-.61-2.58-1.7-10.8-2.18-11.8s-6.66-7-7.85-9.46c1.41-1.71.67-9.56,1-13.07S35.57,24.44,34,22.94c2.84.45,7.1-3,7.1-3l1.58-2.51a6.92,6.92,0,0,1-.33,2.7c-.64,1.27-4.54,3.47-4.54,3.47s4.32,13.08,3.93,17.44c-.22,2.45-1.35,8.24-.9,9.8s5.63,5.88,6.39,8.07S50.8,67.58,50.8,67.58Z"/><path class="cls-6" d="M74.79,85.08c.16,2.11,2.89,4.67,4.23,6.26-1.07-2.32-2.28-5-2.28-6.74,0-2.87,2.12-9.53,3.35-13.13l1.28-14.1L77.06,67.58l-.27.14C76.16,72.27,74.66,83.41,74.79,85.08Z"/><path class="cls-6" d="M43.76,79.46c2-.23,2.87-1.14,3.79-3.59-.43,2.47,0,10.36,0,10.36A7.8,7.8,0,0,0,43.76,79.46Z"/><path class="cls-12" d="M84.86,152.41c-6.26,1.18-13.1,2-19.45.26-.18-1-.41-2.19-.62-3.6v0c-.31-1.93-.6-4.21-.77-6.64,0-.53-.07-1.07-.09-1.62l0,.62v0a76.16,76.16,0,0,1-1.75,11.25c-7.22,1.2-13.69,1.26-19.21,0,.56-4.91,1.69-14,4.76-22.47.47-1.29,1.62-4.92,1.62-4.92H78.64s1.52,3.77,1.9,5.06C82,135.37,84.86,147.51,84.86,152.41Z"/><path class="cls-13" d="M63.91,141.4v0a76.16,76.16,0,0,1-1.75,11.25l-6.24.74c1.85-5.59,3-17.74,3.49-15.74A5,5,0,0,0,63.91,141.4Z"/><path class="cls-12" d="M64.79,149c-.31-1.93-.6-4.21-.77-6.64Z"/><path class="cls-13" d="M80.17,146.86c.28-4-2.58-21.58-2.58-21.58h1s1.52,3.77,1.9,5.06c1.47,5,4.32,17.17,4.32,22.07l-5.12.83C80,151.6,80.06,148.49,80.17,146.86Z"/></g></g></svg>