<svg xmlns="http://www.w3.org/2000/svg" viewBox="0 0 88.76 176.09"><defs><style>.cls-1{isolation:isolate;}.cls-2,.cls-3{fill:#e3b678;}.cls-10,.cls-14,.cls-15,.cls-17,.cls-18,.cls-19,.cls-20,.cls-3,.cls-5,.cls-6,.cls-8{fill-rule:evenodd;}.cls-4,.cls-5{fill:#d6a35e;}.cls-6{fill:#ebbc7c;}.cls-7{fill:#bd400f;}.cls-8{fill:#ffcc87;}.cls-9{fill:#d14711;}.cls-10{fill:#ebe1d5;}.cls-10,.cls-14,.cls-20{mix-blend-mode:multiply;}.cls-11{fill:#8a531d;}.cls-12{fill:#7a4410;}.cls-13{fill:#61a308;}.cls-14{fill:#ede3d5;}.cls-15{fill:#e6e6e6;}.cls-16,.cls-17{fill:#b3b3b3;}.cls-18{fill:#666;}.cls-19{fill:gray;}.cls-20{fill:#ccc;}</style></defs><title>Asset 2</title><g class="cls-1"><g id="Layer_2" data-name="Layer 2"><g id="Layer_2-2" data-name="Layer 2"><rect class="cls-2" x="81.33" y="134.53" width="5" height="6.49" transform="translate(-73.09 100.55) rotate(-45.34)"/><path class="cls-3" d="M79.94,140.4l7-1.1a1.59,1.59,0,0,1,1.81,1.32v0a1.58,1.58,0,0,1-1.31,1.81l-7,1.09a1.58,1.58,0,0,1-1.81-1.31v0A1.58,1.58,0,0,1,79.94,140.4Z"/><path class="cls-3" d="M78.33,142.33l7-1.1a1.58,1.58,0,0,1,1.81,1.32v0a1.58,1.58,0,0,1-1.32,1.8l-7,1.1A1.59,1.59,0,0,1,77,144.16v0A1.57,1.57,0,0,1,78.33,142.33Z"/><path class="cls-3" d="M82.14,143.46l0-7.08a1.58,1.58,0,0,1,1.57-1.59h0a1.58,1.58,0,0,1,1.59,1.57l0,7.08A1.58,1.58,0,0,1,83.76,145h0A1.59,1.59,0,0,1,82.14,143.46Z"/><path class="cls-3" d="M88.68,143.61a1.66,1.66,0,0,1-1.4,1.9l-3.82.61-3.59.56a1.46,1.46,0,0,1-.51,0A1.67,1.67,0,0,1,78,145.29v0a1.68,1.68,0,0,1,.62-1.56,1.52,1.52,0,0,1,.79-.36l3.38-.52,4-.64a1.69,1.69,0,0,1,1.91,1.4Z"/><path class="cls-3" d="M85.38,143.75l0-9.09A1.68,1.68,0,0,1,87,133h0a1.68,1.68,0,0,1,1.69,1.67v9.09a1.72,1.72,0,0,1-1.66,1.78h0A1.72,1.72,0,0,1,85.38,143.75Z"/><polygon class="cls-3" points="79 139.28 71.03 128.76 77.19 122.52 86.49 131.71 79 139.28"/><polygon class="cls-3" points="87.01 139.17 79.94 132.19 83.41 128.67 88.27 133.47 87.01 139.17"/><polygon class="cls-3" points="65.8 111.26 77.19 122.52 71.02 128.76 57.64 119.51 65.8 111.26"/><path class="cls-3" d="M83.46,146.12l-3.59.56a1.46,1.46,0,0,1-.51,0,.75.75,0,0,1-.07-.18l-.73-2.81a1.52,1.52,0,0,1,.79-.36l3.38-.52.68,2.61A1.87,1.87,0,0,1,83.46,146.12Z"/><path class="cls-3" d="M78.37,145.68,75.2,133.57A2.1,2.1,0,0,1,76.7,131h0a2.12,2.12,0,0,1,2.57,1.5l3.17,12.11a2.09,2.09,0,0,1-1.5,2.57h0A2.11,2.11,0,0,1,78.37,145.68Z"/><rect class="cls-4" x="81.33" y="134.53" width="5" height="6.49" transform="translate(-73.09 100.55) rotate(-45.34)"/><path class="cls-5" d="M79.94,140.4l7-1.1a1.59,1.59,0,0,1,1.81,1.32v0a1.58,1.58,0,0,1-1.31,1.81l-7,1.09a1.58,1.58,0,0,1-1.81-1.31v0A1.58,1.58,0,0,1,79.94,140.4Z"/><path class="cls-5" d="M78.33,142.33l7-1.1a1.58,1.58,0,0,1,1.81,1.32v0a1.58,1.58,0,0,1-1.32,1.8l-7,1.1A1.59,1.59,0,0,1,77,144.16v0A1.57,1.57,0,0,1,78.33,142.33Z"/><path class="cls-5" d="M82.14,143.46l0-7.08a1.58,1.58,0,0,1,1.57-1.59h0a1.58,1.58,0,0,1,1.59,1.57l0,7.08A1.58,1.58,0,0,1,83.76,145h0A1.59,1.59,0,0,1,82.14,143.46Z"/><path class="cls-6" d="M88.68,143.61a1.66,1.66,0,0,1-1.4,1.9l-3.82.61-3.59.56a1.46,1.46,0,0,1-.51,0A1.67,1.67,0,0,1,78,145.29v0a1.68,1.68,0,0,1,.62-1.56,1.52,1.52,0,0,1,.79-.36l3.38-.52,4-.64a1.69,1.69,0,0,1,1.91,1.4Z"/><path class="cls-6" d="M85.38,143.75l0-9.09A1.68,1.68,0,0,1,87,133h0a1.68,1.68,0,0,1,1.69,1.67v9.09a1.72,1.72,0,0,1-1.66,1.78h0A1.72,1.72,0,0,1,85.38,143.75Z"/><polygon class="cls-6" points="79 139.28 71.03 128.76 77.19 122.52 86.49 131.71 79 139.28"/><polygon class="cls-6" points="87.01 139.17 79.94 132.19 83.41 128.67 88.27 133.47 87.01 139.17"/><polygon class="cls-6" points="65.8 111.26 77.19 122.52 71.02 128.76 57.64 119.51 65.8 111.26"/><path class="cls-5" d="M83.46,146.12l-3.59.56a1.46,1.46,0,0,1-.51,0,.75.75,0,0,1-.07-.18l-.73-2.81a1.52,1.52,0,0,1,.79-.36l3.38-.52.68,2.61A1.87,1.87,0,0,1,83.46,146.12Z"/><path class="cls-6" d="M78.37,145.68,75.2,133.57A2.1,2.1,0,0,1,76.7,131h0a2.12,2.12,0,0,1,2.57,1.5l3.17,12.11a2.09,2.09,0,0,1-1.5,2.57h0A2.11,2.11,0,0,1,78.37,145.68Z"/><path class="cls-5" d="M45.13,54.2c2.9-1.39,8.55-1.1,11,3.19,2.86,5.07,9.71,39.72,9.71,39.72l-20-37.22S42.22,55.58,45.13,54.2Z"/><path class="cls-6" d="M66.75,154.56c1.14,4.6,7.23,21.53,7.23,21.53H32.87S24,164.11,24,153.58a20.28,20.28,0,0,1,.21-2.87,19,19,0,0,1,3-7.62c2.89-4.41,7.06-7.85,9.82-11.92.22-.32.46-.62.66-.95s.51-.88.73-1.33A13.59,13.59,0,0,0,40,122.3c0-.92-1-2.57-2.44-4.59l-.4-.55c-.77-1-1.65-2.14-2.61-3.29-5-6-11.78-13-13.33-14.37a1,1,0,0,1-.2-.21,24.19,24.19,0,0,1-2.58-4.59c-3.84-8.21-9.14-24.09-4.71-28.48a39.39,39.39,0,0,0,5.46-7.13c.88-1.44,1.72-3,2.5-4.51,2.39-4.86,4.12-10.17,4.29-14.65,0-.27,0-.52,0-.77L45.1,48.37l0,5.83a20,20,0,0,1,5.22,2.39c.87.6,3.39,2.85,6.49,5.78C63.74,68.91,73.45,78.88,74,81.9a10.42,10.42,0,0,1-.74,5.79,19.67,19.67,0,0,1-4.36,6.21,33.63,33.63,0,0,0,.27,5.89l.06.58c.1,1,.21,2,.33,3,.23,2.17.48,4.35.65,6.11.28,2.8-.89,14.56-1.94,25.45-.23,2.31-.44,4.59-.64,6.73C67,147.83,66.63,152.87,66.75,154.56Z"/><path class="cls-7" d="M49.48,176.09H26.64s-5.92-11.66-6.09-21.86c-.08-4.82,2.65-9.07,6.09-12.86s7.74-7.15,10.44-10.2c0,0-.06,0,0,0,.28.13.71.3,1,.43l.63,2.47Z"/><path class="cls-6" d="M28.29,80c-1.6,3.66-5,8.24-5,13.84,0,8.54-6.54,19.44-8.18,22.24A12.11,12.11,0,0,1,0,120.83c.17-4.4,7.38-42.21,9.19-47.15S15.11,62.92,20,63C28.27,63.21,31.57,72.42,28.29,80Z"/><path class="cls-8" d="M.79,119.1s10-42.22,12.06-47a22.73,22.73,0,0,1,4.9-7.17s0,0,0,0a38.91,38.91,0,0,0,5.87-6.78c1-1.38,1.9-2.84,2.77-4.36A42.33,42.33,0,0,0,31.2,41.69L26,39.16c0,.25,0,.5,0,.77-.17,4.48-1.9,9.79-4.29,14.65-.78,1.56-1.62,3.07-2.5,4.51a38.94,38.94,0,0,1-5.46,7.12,0,0,0,0,1,0,0,22.71,22.71,0,0,0-4.46,7.45C7.4,78.62.18,116.2,0,120.61.46,118.8.79,119.1.79,119.1Z"/><path class="cls-8" d="M32.7,175.86l.17.23h3.67Z"/><path class="cls-5" d="M28.31,77c-2.06,3.65-6,8-6.75,13.9-1.14,9-9,19.57-11,22.3-1.47,2-5.3,5.42-10.18,5.3-.2,1.37-.3,1.86-.32,2.38a12.11,12.11,0,0,0,15.11-4.76c1.64-2.8,8.18-13.7,8.18-22.24,0-5.6,3.38-10.18,5-13.84a15.26,15.26,0,0,0,1.25-5.78A16.77,16.77,0,0,1,28.31,77Z"/><path class="cls-9" d="M69.15,99.79a18.35,18.35,0,0,0-9.4-1.45c-7.06.54-19.73,10.79-25.25,15.53-5-6-11.78-13-13.33-14.37a1,1,0,0,1-.2-.21c5.14-4,16-12.94,17.91-18.29,2.54-7.07-10.11-19.48-12.74-20.39a24.59,24.59,0,0,0-7-1.52c.88-1.44,1.72-3,2.5-4.51.84.11,1.78.26,2.77.44,4.11.74,31.93,20,34.83,21.37s8.61,2,5-3.85C61.11,67.6,47.75,56.3,45.13,55.68V54.2a20,20,0,0,1,5.22,2.39C53.14,58.53,73.22,77.52,74,81.9c1,5.78-3.63,10.52-5.1,12A33.63,33.63,0,0,0,69.15,99.79Z"/><path class="cls-9" d="M74,176.09H32.87S24,164.11,24,153.58a20.28,20.28,0,0,1,.21-2.87c.43-2.89,2.43-9.33,6.59-13.5,2.14-2.13,4.34-3.88,6.27-6,0,0-.06,0,0,0,.28.13.71.3,1,.43l2.17.91c7.37,3.06,20.25,7.94,27.35,9.19-.57,6.13-1,11.17-.86,12.86C67.89,159.16,74,176.09,74,176.09Z"/><path class="cls-10" d="M56.84,62.37c-3.84,0-8.19,0-11-.09-5.4-.18-17.34-18.38-19.88-22.35-.32-.49-.49-.77-.49-.77H26L45.1,48.37l0,5.83a20,20,0,0,1,5.22,2.39C51.22,57.19,53.74,59.44,56.84,62.37Z"/><path class="cls-11" d="M34.51,8.83A4.92,4.92,0,0,1,34.18,10L26,23.09c0,7.7-1.72,18.16-7.61,20.58a7.69,7.69,0,0,1-4.89.23,17.31,17.31,0,0,0,3.41-9.62c0-8.81-5.76-11.06-5.76-19.41S17.38,0,23.22,0C31.1,0,35.09,4.91,34.51,8.83Z"/><path class="cls-12" d="M34.51,8.83A4.92,4.92,0,0,1,34.18,10L26,23.09c0,7.7-1.72,18.16-7.61,20.58.55-.94,2.52-5.24,1.29-9.39-2.42-8.16-3.26-10.13-3.26-18.11S21.24,2,25.77,2C31.05,2,34.08,5.46,34.51,8.83Z"/><path class="cls-13" d="M32.39,5.66c1.13,2,0,5-2.61,6.62s-5.57,1.32-6.71-.71,0-5,2.6-6.61S31.25,3.64,32.39,5.66Z"/><path class="cls-6" d="M56.13,25.36q0,.59,0,1.2c-.34,8.06-4.05,18-8.05,22.36-1.32,1.46-2.67,2.32-3.94,2.32-5,.38-15.55-5.18-18.46-12.08l-1.06-6.24-2.81,0c-.19-.32-.36-.66-.54-1a21.4,21.4,0,0,1-1.74-8.73A18.51,18.51,0,0,1,37.67,4.46H38c9,0,15.41,5.66,17.44,14.58A28.75,28.75,0,0,1,56.13,25.36Z"/><path class="cls-6" d="M26,39.16l-1.25-.28a5.56,5.56,0,0,1-4.22-5.52v-1a2.86,2.86,0,0,1,2.77-2.95h.46A2.31,2.31,0,0,1,26,31.79Z"/><path class="cls-8" d="M19.61,21.73l.23-1.42a4.41,4.41,0,0,1,.82-2c-.08-.38-.12-.81-.18-1.21a19,19,0,0,0-1,5.91A8.47,8.47,0,0,1,19.61,21.73Z"/><path class="cls-8" d="M25.3,31v-.1l-1.2-.48a7.76,7.76,0,0,1-4.6-7.29v0a22.12,22.12,0,0,0,1.35,7.73,3.17,3.17,0,0,0-.36,1.45v1a5.56,5.56,0,0,0,4.22,5.52l.92.21,0,.07c2.91,6.9,13.47,12.46,18.46,12.08,0,0,.11,0,.17,0C37.2,48.56,27.36,39.89,25.3,31Z"/><path class="cls-5" d="M56.1,26.56c-.34,8.06-4.05,18-8.05,22.36a6,6,0,0,0-3.44-3.09V40.2l2.8-.92a1.4,1.4,0,0,0,.85-1.74l-2-6.58a3.34,3.34,0,0,1,3-4.4Z"/><path class="cls-11" d="M20.44,32c-1.13-2.44-1-5.59-1-8.81,0-10.38,8.2-18.83,18.27-18.83H38C46.9,4.35,53.46,9.83,55.55,19v.07l-.05,0a16.28,16.28,0,0,1-9.7,3.18c-3.82,0-8-1.26-12.54-3.75-.94,8.17-5.7,12.72-12.73,13.49Z"/><path class="cls-14" d="M69.54,103.41a12,12,0,0,0-9.92,9.69,13.12,13.12,0,0,0-.16,1.51,5.82,5.82,0,0,0-1.63.33c-1.45.58-4.55,3.9-8.8,4.27a10.34,10.34,0,0,1-1.84-.06c-.06-9.29-10.94-30.78-7.52-30.51,12.52,11.5,25.46,1.22,29.21,5.26a19.67,19.67,0,0,0,4.36-6.21c-2.36,1.53-7.49,0-9.12-1.18-3.79,6.41-15.78-.66-17.49-1.65s-9.94-1.73-20-1.65c-1.59,3-3.37,6.55-3.37,10.62a24.91,24.91,0,0,1-1.06,6.72c2.55,2.52,8.05,8.26,12.25,13.32,1,1.15,1.84,2.27,2.61,3.29l.42.55h0c1.46,2,12,1.2,14.27,11.44A11,11,0,0,0,68.25,135c1-10.89,2.22-22.65,1.94-25.45C70,107.76,69.77,105.58,69.54,103.41Z"/><path class="cls-15" d="M73.06,123.79a11,11,0,1,1-21.63-3.92A11,11,0,0,1,64.21,111,11,11,0,0,1,73.06,123.79Z"/><circle class="cls-16" cx="62.56" cy="121.28" r="9.95" transform="translate(-70.64 150.99) rotate(-75.29)"/><path class="cls-15" d="M64.45,112.42A8.09,8.09,0,1,1,55,118.94,8.09,8.09,0,0,1,64.45,112.42Z"/><path class="cls-17" d="M64.78,112.79a7.07,7.07,0,1,1-8.37,5.67A7.15,7.15,0,0,1,64.78,112.79Z"/><path class="cls-18" d="M64,117.38a2.26,2.26,0,1,1-2.63,1.82A2.26,2.26,0,0,1,64,117.38Z"/><path class="cls-19" d="M64,117.38a1.56,1.56,0,1,1-1.82,1.26A1.56,1.56,0,0,1,64,117.38Z"/><path class="cls-20" d="M70.71,120.51l0,.07-.14.8L70,124.49l-.35,2A3,3,0,0,1,68,128.59l-2,1a3.24,3.24,0,0,1-2.74.05,41.73,41.73,0,0,0-8.9-2.69c-.66-.13-1.33-.25-2-.34A11,11,0,0,1,53.6,115c1.93-1.07,3.38-2.39,4.23-2.73a4.3,4.3,0,0,1,1.07-.26,12.5,12.5,0,0,1,2.82,0l0,.39,0,.48-.34,5.93h.08l.69.13,3,.54.69.13Z"/><path class="cls-6" d="M.44,122.31c2.47,4.34,42.62,2,50.32,2.77a42.73,42.73,0,0,1,12.5,3.22,3.28,3.28,0,0,0,2.74-.05l2-1a3,3,0,0,0,1.62-2.13l1.07-5.94-9.38-1.7.4-6.8a10.13,10.13,0,0,0-3.9.3c-1.44.57-4.54,3.89-8.79,4.27s-33.45-6.26-40-4.43S-1.36,119.14.44,122.31Z"/><polygon class="cls-8" points="61.32 117.49 61.32 117.49 61.32 117.48 61.32 117.49"/><path class="cls-8" d="M9.07,110.84c6.51-1.83,35.72,7.9,40,7.52s7.35-3.7,8.79-4.27a9.54,9.54,0,0,1,3.72-.32l.18-3.07a10.13,10.13,0,0,0-3.9.3c-1.44.57-4.54,3.89-8.79,4.27s-33.45-6.26-40-4.43c-5.7,1.6-9.41,6.76-9,10.14C-.34,117.6,3.37,112.45,9.07,110.84Z"/><path class="cls-8" d="M68,127.27l-2,1a3.22,3.22,0,0,1-2.73,0,42.57,42.57,0,0,0-12.51-3.21c-2.48-.25-8.33-.17-15.19-.1,6.86-.07,12.71-.14,15.19.1a42.73,42.73,0,0,1,12.5,3.22,3.28,3.28,0,0,0,2.74-.05l2-1a3,3,0,0,0,1.62-2.13h0A3,3,0,0,1,68,127.27Z"/><polygon class="cls-8" points="69.86 123.88 70.7 119.2 70.7 119.2 69.86 123.88"/><path class="cls-5" d="M61,112.21l.65.12.09-1.63-.64,0Z"/><path class="cls-5" d="M69.45,119l-.16.88A3,3,0,0,1,67.67,122l-2,1a3.28,3.28,0,0,1-2.74.05c-2.14-.93-6.39-1.68-12.2-2.26C43.4,120,1,127.69.75,117.6c-.84,1.76-1,3.48-.31,4.71,2.47,4.34,42.62,2,50.32,2.77a42.73,42.73,0,0,1,12.5,3.22,3.28,3.28,0,0,0,2.74-.05l2-1a3,3,0,0,0,1.62-2.13l1.07-5.94Z"/><path class="cls-15" d="M73.56,99.49a12,12,0,1,1-13.94,9.66A12,12,0,0,1,73.56,99.49Z"/><path class="cls-17" d="M73.7,100a10.85,10.85,0,1,1-12.61,8.74A10.85,10.85,0,0,1,73.7,100Z"/><path class="cls-15" d="M73.82,101a8.82,8.82,0,1,1-10.25,7.1A8.82,8.82,0,0,1,73.82,101Z"/><path class="cls-17" d="M74.19,101.44a7.72,7.72,0,1,1-9.13,6.18A7.79,7.79,0,0,1,74.19,101.44Z"/><path class="cls-18" d="M73.28,106.44a2.46,2.46,0,1,1-2.87,2A2.46,2.46,0,0,1,73.28,106.44Z"/><path class="cls-19" d="M73.28,106.44a1.7,1.7,0,1,1-2,1.37A1.7,1.7,0,0,1,73.28,106.44Z"/></g></g></g></svg>