<svg xmlns="http://www.w3.org/2000/svg" viewBox="0 0 223.98 209.13"><defs><style>.cls-1{isolation:isolate;}.cls-2{fill:#d6a35e;}.cls-10,.cls-11,.cls-12,.cls-15,.cls-16,.cls-17,.cls-2,.cls-3,.cls-5{fill-rule:evenodd;}.cls-3{fill:#e3b678;}.cls-4{fill:#754c24;}.cls-5{fill:#356585;}.cls-10,.cls-6{fill:#ccc;}.cls-7{fill:#428bbc;}.cls-8{fill:#2f6487;}.cls-9{fill:#e6e6e6;}.cls-10,.cls-12,.cls-18{mix-blend-mode:multiply;}.cls-11,.cls-19{fill:#f2f2f2;}.cls-12{fill:#f0f0f0;}.cls-13{fill:#999;}.cls-14,.cls-17{fill:#333;}.cls-15{fill:#4d4d4d;}.cls-16{fill:#666;}</style></defs><title>Asset 5</title><g class="cls-1"><g id="Layer_2" data-name="Layer 2"><g id="Layer_2-2" data-name="Layer 2"><path class="cls-2" d="M74.64,73.23C77.53,72,84.82,64.09,85.91,59.44a57.59,57.59,0,0,1,1.92-6c.35-.93,1-1.89,1.49-3a12.13,12.13,0,0,0,1.25-5.24,7.2,7.2,0,0,0-5.17-6.6c-4.05-.95-6.38,2.4-7.06,4.9a20.11,20.11,0,0,0-.4,3.2,25,25,0,0,1-.44,4c-.44,1.63-2.27,3.83-2.8,6C74.11,59.17,74,73.52,74.64,73.23Z"/><path class="cls-3" d="M68.86,24.69,70.76,29a1.19,1.19,0,0,0,1.45.62l2.67-.9,9.87,10.51,6.63-8.59-2.86-3.11a3.2,3.2,0,0,1-.68-3.35v0a5.77,5.77,0,0,1,.29-.55c.54-.9,1.08-1.87,1.57-2.9a15.89,15.89,0,0,0,1.5-9.12C89.82,4,82.82-.33,75.45,1a9.2,9.2,0,0,0-2.09.65A14.4,14.4,0,0,0,66,9.78a11.47,11.47,0,0,0-.07,5.75,3.3,3.3,0,0,0,1.26,1.64,1.49,1.49,0,0,1,.48,1.6L66.39,23a1.26,1.26,0,0,0,1.1,1.63Z"/><path class="cls-2" d="M74.88,28.7l9.87,10.51,6.64-8.59-2.87-3.11a3.18,3.18,0,0,1-.67-3.35v0a3.17,3.17,0,0,1,.28-.55,31.63,31.63,0,0,0,1.57-2.9L86,18.31l-3.63,1.94.38,2.06a3.74,3.74,0,0,1-2.29,4.15Z"/><path class="cls-4" d="M66,9.78a9.58,9.58,0,0,0,4.81.39,45.58,45.58,0,0,0,4.65-1.08,2.34,2.34,0,0,1,3,1.82l1.18,6.4,2.24-.42a9.55,9.55,0,0,0,6,7.24,5.77,5.77,0,0,1,.29-.55c.54-.9,1.08-1.87,1.57-2.9a15.89,15.89,0,0,0,1.5-9.12C89.82,4,84.33-1.34,75.46.29A11.24,11.24,0,0,0,66,9.78Z"/><path class="cls-3" d="M82.47,20.51l.76-.31a3.42,3.42,0,0,0,2.08-3.8l-.11-.6a1.79,1.79,0,0,0-2.09-1.44l-.29.05a1.44,1.44,0,0,0-1.16,1.69Z"/><path class="cls-3" d="M78.57,49.53c0,4.65,1.48,6.64,3.86,9.29l5.49,24.29L89,87.89,93.86,87l3.45-.61,15.08-2.7-2-2.46-2.29-2.79-2.57-3.14v-32l-5.23-4.93-10-7.21-2.45-1.77-3.06,4.79c-.61,1-1.17,1.86-1.69,2.72-1,1.58-1.78,3-2.43,4.36a20.4,20.4,0,0,0-1.83,5.34A15.87,15.87,0,0,0,78.57,49.53Z"/><path class="cls-3" d="M100,106.79s1.76,6.31,2.87,8.18a73.43,73.43,0,0,0,8.71,10.84l.47.49c5.53,5.89,11.92,11.63,15.36,13.55,1.45.81,3.65,1.22,5.18,1.85,8.69,3.56,23.52,14.38,30.27,21.19,2.34,2.37,5.72,12,5.72,12l5.87,1.78.61-19.57s-6.19-1.19-8-2.25c-6.1-3.62-13.66-16.78-19.84-20.25-4.39-2.46-14.3-6.22-14.3-6.22s-3.77-9.45-6.69-15.23c-.63-1.24-1.21-2.32-1.71-3.09a81.51,81.51,0,0,0-6.79-8.62c-1.22-1.39-2.07-2.29-2.07-2.29Z"/><path class="cls-3" d="M74.73,61.1c.84,3.13,1,12.13-.09,12.13-1.8,0-4.93-3.28-6.65-5.58-3.15-4.22-9.58-20.52-9.58-20.52h6C64.18,51.07,73.68,57.16,74.73,61.1Z"/><path class="cls-3" d="M56.75,32.18a.88.88,0,0,1,.89-.9h0a.88.88,0,0,1,.89.89v1.56l0,3.37a.23.23,0,0,0,.23.23h0A.23.23,0,0,0,59,37.1l0-6.58a.89.89,0,0,1,.89-.9h0a.89.89,0,0,1,.91.88l.05,6.59a.21.21,0,0,0,.23.21h0a.21.21,0,0,0,.22-.22l-.06-7.62a.91.91,0,0,1,.89-.91h0a.9.9,0,0,1,.91.89l.06,7.62a.23.23,0,0,0,.22.23h0a.22.22,0,0,0,.22-.22l-.05-6.59a.88.88,0,0,1,.88-.89h0a.89.89,0,0,1,.91.88l.05,6.81,0,1.87-1,8-6,.07-1.55-3.69A7.45,7.45,0,0,1,56.78,42c-.06-2.14,0-4.65,0-4.65Z"/><path class="cls-2" d="M65.38,42.22l-3.76,3a5.23,5.23,0,0,0-3.55-3V39.6a1.7,1.7,0,0,1,2-1.69A10.26,10.26,0,0,0,65.38,37Z"/><path class="cls-3" d="M64.36,41.8l.6-4.3c.33-1,1-1.62,2-1.29h0c.24.08.31.29.28.58l-.43,6.06s-2,5.2-3.38,4.74a2.55,2.55,0,0,1-1.58-3.53C62.27,42.75,64.36,41.8,64.36,41.8Z"/><path class="cls-3" d="M138.13,84.2a.88.88,0,0,1-.66,1.07h0a.89.89,0,0,1-1.08-.66L136,83.1l-.81-3.27a.21.21,0,0,0-.26-.17h0a.22.22,0,0,0-.16.27l1.57,6.39a.89.89,0,0,1-.66,1.08h0a.89.89,0,0,1-1.08-.65L133,80.36a.23.23,0,0,0-.27-.16h0a.2.2,0,0,0-.16.26l1.81,7.41a.89.89,0,0,1-.65,1.08h0a.9.9,0,0,1-1.09-.65l-1.81-7.4a.23.23,0,0,0-.27-.17h0a.22.22,0,0,0-.16.27l1.57,6.39a.89.89,0,0,1-.66,1.08h0a.9.9,0,0,1-1.09-.65l-2.19-9-.15-7.65,5.17-1.2,2.37,3.27a8.2,8.2,0,0,1,.45,1.45c.55,2.07,1.07,4.53,1.07,4.53Z"/><path class="cls-3" d="M127.59,78l-1.14,4.19c-.45.91-1.18,1.47-2.1,1h0c-.22-.11-.27-.32-.2-.61l1.2-6s.74-4,2.49-4.14c2.26-.19,2.19,2.78,1.76,3.65A4.53,4.53,0,0,1,127.59,78Z"/><path class="cls-5" d="M100,106.79s1.76,6.31,2.87,8.18a73.43,73.43,0,0,0,8.71,10.84l.47.49,14.21-13.15c-.63-1.24-1.21-2.32-1.71-3.09a81.51,81.51,0,0,0-6.79-8.62c-1.22-1.39-2.07-2.29-2.07-2.29Z"/><path class="cls-6" d="M176,176.14c.56-1.81,0-5.38,1.28-8.46.71-1.72,3.32-11.68,2-12l-1.69-.39-2.67,11.59-2,8.86-4.61,8.31C172.31,185,174.92,179.68,176,176.14Z"/><path class="cls-7" d="M168.26,184.06c2.57.59,5.66-5.95,6.23-8.52.46-2.12-.06-6.54.42-8.65l1.05-4.55c.78-3.36,1.62-7,1.62-7l-5.25-.5-3.19-.23c-.64-.06-.59,1.41-.29,2,.72,1.49,2,2,1.65,3.36a5.94,5.94,0,0,1-2.8,3.53c-.91.65-1.73,1.16-1.89,1.85-.28,1.19,1.06,13.34,1.14,13.88C167.34,181.9,167.29,183.84,168.26,184.06Z"/><path class="cls-8" d="M176,162.34c.78-3.36,1.62-7,1.62-7l-5.25-.5C171.67,158.21,173.24,161.44,176,162.34Z"/><path class="cls-7" d="M166.38,165.07l-2.18.31a.38.38,0,0,0-.32.48l2.94,12.2Z"/><path class="cls-8" d="M167,179.21a1.52,1.52,0,0,0,1.7-1.11c.27-1.18-.16-6.49-1-14.62-.91.65-1.73,1.16-1.89,1.85C165.53,166.52,166.87,178.67,167,179.21Z"/><path class="cls-9" d="M167.12,166.27a.39.39,0,0,0-.67-.36l-2.23,2.28a.39.39,0,0,0,.56.55l2.23-2.28A.41.41,0,0,0,167.12,166.27Z"/><path class="cls-9" d="M167.44,168.58a.4.4,0,0,0-.11-.37.4.4,0,0,0-.56,0l-2,2.09a.39.39,0,0,0,.56.55l2-2.09A.34.34,0,0,0,167.44,168.58Z"/><path class="cls-9" d="M167.64,171a.39.39,0,0,0-.67-.36l-1.73,1.77a.4.4,0,0,0,0,.56.38.38,0,0,0,.55,0l1.74-1.77A.5.5,0,0,0,167.64,171Z"/><path class="cls-9" d="M167.76,173.51a.41.41,0,0,0-.1-.38.4.4,0,0,0-.56,0l-1.35,1.38a.4.4,0,0,0,0,.56.38.38,0,0,0,.55,0l1.35-1.38A.3.3,0,0,0,167.76,173.51Z"/><path class="cls-9" d="M168.1,175.79a.4.4,0,0,0-.11-.37.38.38,0,0,0-.55,0l-1.18,1.2a.39.39,0,0,0,0,.55.39.39,0,0,0,.56,0L167,177l1-1A.44.44,0,0,0,168.1,175.79Z"/><path class="cls-10" d="M100,106.79s1.76,6.31,2.87,8.18a73.43,73.43,0,0,0,8.71,10.84l6.18-24.37c-1.22-1.39-2.07-2.29-2.07-2.29Z"/><path class="cls-3" d="M74.35,156.18a18.58,18.58,0,0,1,1.52,12.5v.06l-8.68,9,3.89,3.59L82.15,175l6.58-2.69s-3.41-7-4.39-9.17c-2.71-5.95-4.23-21.37-6.56-27.37-1.47-3.79-7.07-11.37-7.07-11.37s7.42-3,13.7-5.8c3-1.32,5.76-2.6,7.29-3.46,3.58-2,11-8.56,14.12-9.47,3.68-1.1,9.68-3.89,10.91-7.22,1.59-4.3-.55-11.53-4.34-14.78L89,87.89l.63,3s-8,5.21-13.91,10a21.66,21.66,0,0,0-3.39,3.66c-4.67,6-12,14-12,14-2.12,1.84-3.21,3.76-2,5.77Z"/><path class="cls-6" d="M72.91,183.54c1.78-.61,4.34-3.17,7.58-3.95,1.81-.43,11.39-4.2,10.85-5.47l-.68-1.59L79.73,177.2l-8.36,3.58L61.94,182C63.57,185.77,69.4,184.75,72.91,183.54Z"/><path class="cls-7" d="M61.94,182c1,2.43,8.14,1.07,10.55,0,2-.87,5.25-3.91,7.24-4.76L84,175.37l6.64-2.84L88,168l-1.69-2.71c-.33-.55-1.49.35-1.81.95-.78,1.46-.47,2.78-1.74,3.32a6,6,0,0,1-4.5-.18c-1.07-.36-2-.72-2.61-.44-1.12.48-10.14,8.72-10.53,9.1C63.14,179.94,61.55,181,61.94,182Z"/><path class="cls-8" d="M84,175.37l6.64-2.84L88,168C84.83,169.46,83.14,172.64,84,175.37Z"/><path class="cls-7" d="M76.17,169.24l-1.54-1.58a.4.4,0,0,0-.58,0l-8.12,9.57Z"/><path class="cls-8" d="M65.09,178a1.51,1.51,0,0,0,1.89.73c1.11-.48,5.15-4,11.25-9.39-1.07-.36-2-.72-2.61-.44C74.5,169.41,65.48,177.65,65.09,178Z"/><path class="cls-9" d="M75.63,170.54a.41.41,0,0,0,.24-.3.4.4,0,0,0-.34-.45l-3.15-.46a.4.4,0,0,0-.45.34.39.39,0,0,0,.33.44l3.16.46A.37.37,0,0,0,75.63,170.54Z"/><path class="cls-9" d="M74,172.16a.38.38,0,0,0,.23-.3.39.39,0,0,0-.33-.45L71,171a.39.39,0,0,0-.44.33.38.38,0,0,0,.33.45l2.89.42A.39.39,0,0,0,74,172.16Z"/><path class="cls-9" d="M72.12,173.75a.38.38,0,0,0,.23-.3A.4.4,0,0,0,72,173l-2.46-.35a.39.39,0,0,0-.44.33.41.41,0,0,0,.33.45l2.46.35A.39.39,0,0,0,72.12,173.75Z"/><path class="cls-9" d="M70.17,175.33a.41.41,0,0,0,.24-.3.4.4,0,0,0-.34-.45l-1.91-.28a.4.4,0,0,0-.45.34.39.39,0,0,0,.34.44l1.91.28A.37.37,0,0,0,70.17,175.33Z"/><path class="cls-9" d="M68.52,177a.41.41,0,0,0,.24-.3.4.4,0,0,0-.34-.45L66.76,176a.39.39,0,0,0-.45.33.4.4,0,0,0,.33.45l.27,0,1.4.21A.37.37,0,0,0,68.52,177Z"/><path class="cls-5" d="M72.33,104.5l12.08,14.13c3-1.32,5.76-2.6,7.29-3.46,3.58-2,11-8.56,14.12-9.47,3.68-1.1,9.62-3.55,10.91-7.22,1.57-4.48-.32-11.21-3.81-14.78-1.19-1.21-4.84-5.25-4.84-5.25L87.92,83.11,89,87.89l.63,3s-8,5.21-13.91,10A21.66,21.66,0,0,0,72.33,104.5Z"/><path class="cls-11" d="M78.57,49.53c0,4.65,1.48,6.64,3.86,9.29l6.66,30.72,8.22-3.14,13.46-5.54-5.26-5.55v-32l-5.23-4.93L84.79,34.16l-1.64-.44c0,.85,0,2-.05,3.16-.2,3.92-1,8.94-4.26,9.7A15.87,15.87,0,0,0,78.57,49.53Z"/><polygon class="cls-12" points="84.92 39.2 105.5 66.95 105.5 43.28 100.28 38.35 84.92 39.2"/><path class="cls-3" d="M83.15,34c0,3.74,2,6.29,4.73,7,1.92.52,7.6.34,7.6.34s.88.55,2.06,1.21a21.88,21.88,0,0,0,4.59,2.09c2.72.66,7.71.42,11,0,2.36,4.13,7.64,9.09,9.55,12.55,1.79,3.24,5.18,13.9,5.18,13.9l5.18-1.2s-2-14.45-3.66-18.58c-1-2.54-3.89-6.74-5.44-9-.44-.65-.49-1.89-1.18-2.32-4.09-2.6-11.4-7.59-16.44-8.79-1.18-.28-3.14-.59-4.92-.95a19,19,0,0,1-2.85-.76c-2.22-.86-4.58-3.07-9-3.07C86.05,26.47,83.15,30.91,83.15,34Z"/><path class="cls-13" d="M37.65,66.06l-.13.13-3.06,3.24a1.43,1.43,0,0,1-.76.43,1.54,1.54,0,0,1-1.44-.38L14.4,52.63a1.44,1.44,0,0,1-.05-2.05l3.24-3.44Z"/><polygon class="cls-6" points="37.65 66.06 37.61 64.71 18.95 47.09 17.6 47.13 37.65 66.06"/><rect class="cls-13" x="10.02" y="189.19" width="201.6" height="11.53"/><rect class="cls-14" x="10.02" y="184.64" width="201.6" height="4.55"/><path class="cls-15" d="M222.59,209.13H202.73L193,200.78l1.81-15.6a4.5,4.5,0,0,1,5.32-3.9l20.16,3.86a4.5,4.5,0,0,1,3.64,4.74Z"/><polygon class="cls-16" points="51.96 77.86 50.58 81.64 11.69 205.21 2.56 205.21 41.44 81.64 42.83 77.86 51.96 77.86"/><path class="cls-15" d="M116.58,209.13H2.56A2.56,2.56,0,0,1,0,206.57v-6.95a2.56,2.56,0,0,1,2.56-2.56H120.39a2.39,2.39,0,0,1,2.38,2.38v3.5A6.19,6.19,0,0,1,116.58,209.13Z"/><path class="cls-17" d="M82.83,72.07H58.91v6.41H82.83A1.12,1.12,0,0,0,84,77.36V73.18A1.11,1.11,0,0,0,82.83,72.07Z"/><path class="cls-16" d="M82.83,72.76H58.91V75H82.83A1.12,1.12,0,0,0,84,73.9v0A1.12,1.12,0,0,0,82.83,72.76Z"/><g class="cls-18"><path class="cls-9" d="M37.52,66.19l-3.06,3.24a1.43,1.43,0,0,1-.76.43c-3.26-2.92-6.47-6-8.72-8.27A1.1,1.1,0,0,1,25,60l2.13-2.14a1.12,1.12,0,0,1,1.57,0C31.27,60.44,34.51,63.5,37.52,66.19Z"/></g><path class="cls-6" d="M58.91,78H44c-3.36,0-14.78-10.92-20.34-16.44a1.11,1.11,0,0,1,0-1.57l2.13-2.14a1.12,1.12,0,0,1,1.57,0c5.72,5.66,14.71,13.8,17,14.92H58.91Z"/><path class="cls-19" d="M58.91,75.27H44c-2.78,0-16.12-13.06-18.56-15.47a.54.54,0,0,1,0-.76l.47-.48a.54.54,0,0,1,.76,0C33,64.82,42.33,73.29,44,73.53H58.91Z"/><polygon class="cls-10" points="51.96 77.86 50.58 81.64 41.44 81.64 42.83 77.86 51.96 77.86"/></g></g></g></svg>