<svg xmlns="http://www.w3.org/2000/svg" viewBox="0 0 105.84 124.86"><defs><style>.cls-1{isolation:isolate;}.cls-2{fill:#e3b678;}.cls-2,.cls-5{fill-rule:evenodd;}.cls-3{fill:#316d8c;}.cls-4{fill:#285973;}.cls-5{fill:#d6a35e;}.cls-6{fill:#f2f2f2;}.cls-6,.cls-9{mix-blend-mode:multiply;}.cls-7{fill:#e8a772;}.cls-8{fill:#d14711;}.cls-9{fill:#e6e6e6;}.cls-10{fill:#61a308;}.cls-11{fill:#8a531d;}.cls-12{fill:#7a4410;}</style></defs><title>Asset 3</title><g class="cls-1"><g id="Layer_2" data-name="Layer 2"><g id="Layer_2-2" data-name="Layer 2"><path class="cls-2" d="M75.48,109.5H30.36c0-.43,0-.85,0-1.26,0-.14,0-.28,0-.42s0-.55.06-.82a26.81,26.81,0,0,1,1.5-6.5,30.73,30.73,0,0,1,1.2-2.85c.15-.3.31-.62.47-.92A20.85,20.85,0,0,1,37.22,92c1.75-1.88,3.41-3.65,4.13-6.75.08-.3.14-.63.2-.94s.05-.32.07-.49l.06-.47h0v0c0-.33.07-.68.08-1s0-.68,0-1,0-.67,0-1,0-.67,0-1c0-.05,0-.1,0-.15-.08-1-.2-2-.34-3-.1-.69-.2-1.38-.33-2.1-.07-.47-.16-.93-.27-1.4,0-.22-.07-.44-.12-.67s-.08-.44-.14-.67l-.21-.92c0-.07,0-.14,0-.21-.08-.4-.17-.8-.28-1.2s-.19-.81-.3-1.21c0-.11,0-.22-.08-.33l-.27-1c-.85-3.16-1.81-6.3-2.85-9.4h0c-.72-2.18-1.49-4.35-2.28-6.5-.36-1-.73-1.94-1.1-2.91-.14-.36-.28-.72-.43-1.08,0-.09,0-.2.12-.32h0a5.57,5.57,0,0,1,1-.76l.41-.26c.14-.09.29-.19.44-.27a25.09,25.09,0,0,1,5.16-2.19l.61-.18.59-.16a36.15,36.15,0,0,1,6.63-.9c1.29-.08,2.62-.12,3.93-.12h0c.87,0,1.71,0,2.55,0,1.41,0,2.78.09,4,.18a45.52,45.52,0,0,1,6.65.79l.1,0,1.2.35a25.76,25.76,0,0,1,3,1.07l.59.28a9.45,9.45,0,0,1,.94.5c.17.1.34.18.5.28a17.31,17.31,0,0,1,1.92,1.34c.4.27-.56,2-.72,2.49-2,5.34-3.92,10.77-5.44,16.29-.13.48-.27,1-.4,1.45-.43,1.55-.84,3.14-1.2,4.75s-.7,3.28-.92,4.93c-.14,1-.24,2-.29,3,0,0,0,.1,0,.15a25.84,25.84,0,0,0,0,3.41c0,.21,0,.41.07.62s.06.52.11.78a3.43,3.43,0,0,0,.09.44,5.47,5.47,0,0,0,.14.68c.79,3.22,2.53,4.73,4.35,6.7a19.44,19.44,0,0,1,2.19,2.69c.17.28.34.58.5.86.39.71.76,1.42,1.1,2.14a30.47,30.47,0,0,1,1.2,2.86,27.52,27.52,0,0,1,1.53,6.86,1.94,1.94,0,0,1,0,.34c0,.18,0,.38,0,.57Q75.48,108.87,75.48,109.5Z"/><path class="cls-3" d="M75.48,109.5H30.36c0-.43,0-.85,0-1.26,0-.14,0-.28,0-.42s0-.55.06-.82A24.48,24.48,0,0,1,32,100.49h0a27.89,27.89,0,0,1,1.22-2.84h0c.15-.3.31-.62.47-.92A20.85,20.85,0,0,1,37.22,92a65.58,65.58,0,0,0,15.7,1.81,65.85,65.85,0,0,0,16-1.87,19.44,19.44,0,0,1,2.19,2.69c.17.28.34.58.5.86.4.69.78,1.41,1.14,2.14a27.85,27.85,0,0,1,1.21,2.84,25.21,25.21,0,0,1,1.48,6.88,1.94,1.94,0,0,1,0,.34c0,.18,0,.38,0,.57Q75.48,108.87,75.48,109.5Z"/><path class="cls-4" d="M58.26,109.5c0,.13,0,.27,0,.39s0,.06,0,.08l0,.18a10.24,10.24,0,0,1-.38,1.59,9.28,9.28,0,0,1-4.89,5.45,9.17,9.17,0,0,1-5.21.75l-11.22-1.65-3.57-.53-4.6-.68-6.15-.91-6.5-1h-.06l-2.95-.44a9.22,9.22,0,0,1-7.79-10.46l0-.19a9.23,9.23,0,0,1,10.47-7.79l16.27,2.39h0l18.78,2.76a9,9,0,0,1,2.49.74,9.22,9.22,0,0,1,5.26,6.91A8.09,8.09,0,0,1,58.26,109.5Z"/><rect class="cls-4" x="47.35" y="96.81" width="53.89" height="18.64" rx="9.23" transform="translate(-14.66 11.95) rotate(-8.37)"/><path class="cls-5" d="M99.73,105.08c.32,3.6-4.76,6.62-12.49,9.21h0c-13.19,4.38-34.12,7.46-49.39,9.92l-3.92.64v-8.37c1.82.89,10.85-3.23,21.25-8,13.12-6,28.41-12.85,34.1-11.81C97.36,98.2,99.44,101.71,99.73,105.08Z"/><path class="cls-5" d="M33.91,116.48v8.37c-10.37,0-16.52-2.78-22.3-1.55a32.48,32.48,0,0,1-5.81.56c-1.18-.17-3.68-1.39-3.88-3-.82.19-2-1.09-1.91-2s.8-2,3.35-2c1.35-.75,2.19-1.85,3.09-2a5.36,5.36,0,0,1,1.41-.06c3.26.28,8.22,2.48,10.71,1.67,2.06-.64,5.31-4.26,7.46-4.27S33.91,116.48,33.91,116.48Z"/><path class="cls-6" d="M87.22,114.29c-13.19,4.38-34.12,7.46-49.39,9.92-1.35-.26-2.66-.52-3.92-.79-11.71-2.45-20.78-5.15-26-8.61,3.26.28,8.22,2.48,10.71,1.67,2.06-.64,5.31-4.26,7.46-4.27s7.88,4.27,7.88,4.27c1.82.89,10.85-3.23,21.25-8,6.27,2.86,13.07,5.86,15.56,6.34,2.54-1.86,6.43-4.35,9.07-4.35,2.4,0,4.43,1.55,6.41,3Z"/><path class="cls-2" d="M102.48,116.89c-1.36-.74-2.19-1.86-3.09-2-3-.57-9.22,2.56-12.13,1.63-2.05-.65-5.3-4.26-7.45-4.29s-7.89,4.29-7.89,4.29c-4.11,2-45.16-21.67-55.35-19.79-8.1,1.49-10.17,5-10.47,8.39-.89,10.28,42.11,15.8,65.82,19.77,10.37,0,16.53-2.79,22.31-1.56a34.42,34.42,0,0,0,5.8.56c1.19-.16,3.69-1.39,3.89-3,.82.18,2-1.09,1.91-2S105,116.94,102.48,116.89Z"/><path class="cls-5" d="M101.53,122.11a35.67,35.67,0,0,1-6-.6c-6-1.3-12.35,1.64-23.07,1.64-21.33-3.63-57.72-8.52-66.25-16.87,2.38,9.52,42.93,14.77,65.7,18.58,10.37,0,16.53-2.79,22.31-1.56a34.42,34.42,0,0,0,5.8.56c1.12-.15,3.39-1.25,3.81-2.71A6.5,6.5,0,0,1,101.53,122.11Z"/><path class="cls-5" d="M101.53,122.11a35.67,35.67,0,0,1-6-.6c-6-1.3-12.35,1.64-23.07,1.64-21.33-3.63-57.72-8.52-66.25-16.87,2.38,9.52,42.93,14.77,65.7,18.58,10.37,0,16.53-2.79,22.31-1.56a34.42,34.42,0,0,0,5.8.56c1.12-.15,3.39-1.25,3.81-2.71A6.5,6.5,0,0,1,101.53,122.11Z"/><path class="cls-5" d="M105.56,119a3.09,3.09,0,0,1-1.35,1.93,2.21,2.21,0,0,0,1.62-1.93A.82.82,0,0,1,105.56,119Z"/><path class="cls-5" d="M105.56,119a3.09,3.09,0,0,1-1.35,1.93,2.21,2.21,0,0,0,1.62-1.93A.82.82,0,0,1,105.56,119Z"/><path class="cls-7" d="M101.53,122.11a35.67,35.67,0,0,1-6-.6c-6-1.3-12.35,1.64-23.07,1.64-21.33-3.63-57.72-8.52-66.25-16.87,2.38,9.52,42.93,14.77,65.7,18.58,10.37,0,16.53-2.79,22.31-1.56a34.42,34.42,0,0,0,5.8.56c1.12-.15,3.39-1.25,3.81-2.71A6.5,6.5,0,0,1,101.53,122.11Z"/><path class="cls-7" d="M105.56,119a3.09,3.09,0,0,1-1.35,1.93,2.21,2.21,0,0,0,1.62-1.93A.82.82,0,0,1,105.56,119Z"/><path class="cls-8" d="M71.74,61.09A18,18,0,0,1,69.37,57a7.32,7.32,0,0,1-2.86,9.43c-.42,1.6-.81,3.2-1.16,4.77s-.66,3.33-.88,4.91H41.36c-.16-1.14-.35-2.31-.6-3.51,0-.21-.08-.44-.13-.66s-.09-.45-.13-.67l-.21-.92c0-.07,0-.14,0-.21-.19-.8-.37-1.61-.58-2.42-.12-.43-.22-.86-.34-1.29A7.32,7.32,0,0,1,36.46,57a18,18,0,0,1-2.37,4.05l-6.52-8.48.72-1.24a1.4,1.4,0,0,1,.1-.16l0,0a18.79,18.79,0,0,1,4.17-4.79l.19-.16.7-.52c.24-.17.5-.35.75-.51a17.28,17.28,0,0,1,2.35-1.29c.27-.13.55-.25.82-.36a9.75,9.75,0,0,1,1-.35,5.89,5.89,0,0,1,.59-.21l.16-.05.61-.17h0L41,42.39c1.5,6.19,7,10.5,10.13,14.49a9.6,9.6,0,0,1,1.78,2.82,9.35,9.35,0,0,1,1.77-2.82c3.16-4,8.63-8.3,10.13-14.49l1.31.39h0l.61.17.16.05a19.14,19.14,0,0,1,6.16,3.24l.19.16a18.79,18.79,0,0,1,4.17,4.79l0,0a1.4,1.4,0,0,1,.1.16l.72,1.24Z"/><path class="cls-9" d="M66.5,66.47C59.21,69.64,57.59,64.1,52.92,64s-7,5.72-13.6,2.43c.12.43.22.86.34,1.29.21.81.39,1.62.58,2.42,0,.07,0,.14,0,.21.07.3.14.61.2.92h0a34.54,34.54,0,0,1,9.07-2.08v6.9l-2.31,5.78a44.69,44.69,0,0,1-5.08-2.49l-.49-.29a21.45,21.45,0,0,1-.14,5.19c-.06.31-.12.64-.2.94h0L47.32,87l2.61.79a3,3,0,0,0,.89.13,3.08,3.08,0,0,0,2.1-.82,3.05,3.05,0,0,0,2.09.82,3,3,0,0,0,.89-.13L58.5,87l5.94-1.73.08,0a15.22,15.22,0,0,1-.41-2.52,26.56,26.56,0,0,1,0-3.57l-.45.27a45.19,45.19,0,0,1-5.07,2.48l-2.31-5.78V69.25a38.28,38.28,0,0,1,9.07,2h0c.35-1.57.74-3.17,1.16-4.77Z"/><path class="cls-2" d="M88.19,69.37,78.26,52.61l-6.52,8.48c2.41,3.42,5.17,5.76,7.51,9.13C73.67,73,69.12,76.48,64.12,79.3A46.28,46.28,0,0,1,58,82.21l-2.41-6.06-.33-.82V66.77a1.17,1.17,0,0,0-1.17-1.18h0a1.17,1.17,0,0,0-1.16,1.18v17.1a2.09,2.09,0,0,0,2.7,2l2.61-.8,5.94-1.72L85,77.3A5.42,5.42,0,0,0,88.19,69.37Z"/><path class="cls-2" d="M51.75,65.59h0a1.18,1.18,0,0,0-1.17,1.18v8.56l-.32.82-2.42,6.06a45.22,45.22,0,0,1-6.11-2.92c-5-2.81-9.54-6.27-15.12-9.07,2.12-3.07,4.61-5.28,6.86-8.24.22-.29.44-.59.65-.9l-6.52-8.47-.16.27L17.64,69.37a5.42,5.42,0,0,0,3.18,7.93l20.84,6,5.94,1.72,2.62.8a2.1,2.1,0,0,0,2.7-2V66.77A1.18,1.18,0,0,0,51.75,65.59Z"/><path class="cls-10" d="M56.86,2.87c0,1.61-1.73,2.94-3.91,3S49,4.57,49,3,50.7,0,52.88,0,56.84,1.26,56.86,2.87Z"/><path class="cls-11" d="M61.48,9.83c0,4.73-4.27,19.65-9,19.65S44.35,14.56,44.35,9.83a8.57,8.57,0,0,1,17.13,0Z"/><path class="cls-12" d="M60.59,11.86c0,4.24-3.82,17.62-8.06,17.62S45.24,16.1,45.24,11.86a7.68,7.68,0,1,1,15.35,0Z"/><path class="cls-2" d="M54.29,46.09H51.54a4.3,4.3,0,0,1-4.3-4.3v-11H58.59v11A4.29,4.29,0,0,1,54.29,46.09Z"/><path class="cls-5" d="M47.24,38.62V30.81H58.59v7.81s-4.07,3.17-5.7,3.17S47.24,38.62,47.24,38.62Z"/><path class="cls-2" d="M65.65,20.23c0,.29,0,.59,0,.88-.46,9.57-8.36,18.28-12.72,18.28-4.08,0-11.72-8-12.64-17.33-.06-.6-.09-1.22-.09-1.83A12.74,12.74,0,0,1,47.63,8.64a12.49,12.49,0,0,1,2.91-.92,12.37,12.37,0,0,1,2.37-.23A12.74,12.74,0,0,1,65.65,20.23Z"/><path class="cls-11" d="M65.65,20.23c0,.29-.08,1.54-.09,1.83-7.22,0-14.32-3.76-16.75-6.39-1.55-1.67-1.15-4.57-1.18-7a12.49,12.49,0,0,1,2.91-.92,12.37,12.37,0,0,1,2.37-.23A12.74,12.74,0,0,1,65.65,20.23Z"/><path class="cls-11" d="M51,10.71a10.3,10.3,0,0,1-.85,4.1,12.9,12.9,0,0,1-9.86,7.25c-.06-.6-.09-1.22-.09-1.83A12.74,12.74,0,0,1,47.63,8.64a12.49,12.49,0,0,1,2.91-.92A10.2,10.2,0,0,1,51,10.71Z"/><path class="cls-2" d="M40.18,20.23v-.09a2,2,0,0,0-1.67,2v.69a3.87,3.87,0,0,0,2.69,3.67A20.41,20.41,0,0,1,40.18,20.23Z"/><path class="cls-2" d="M65.65,20.23v-.09a2,2,0,0,1,1.67,2v.69a3.87,3.87,0,0,1-2.69,3.67A20.41,20.41,0,0,0,65.65,20.23Z"/><path class="cls-5" d="M55.41,31.46h-5v.11a1,1,0,0,0,1,1h3a1,1,0,0,0,1-1Z"/></g></g></g></svg>