<svg xmlns="http://www.w3.org/2000/svg" viewBox="0 0 232.13 202.25"><defs><style>.cls-1{isolation:isolate;}.cls-2{fill:#e3b678;}.cls-13,.cls-15,.cls-18,.cls-19,.cls-2,.cls-20,.cls-22,.cls-7,.cls-8{fill-rule:evenodd;}.cls-13,.cls-22,.cls-3{fill:#ccc;}.cls-4{fill:#c74f20;}.cls-5{fill:#a83407;}.cls-6{fill:#e6e6e6;}.cls-7{fill:#356585;}.cls-8{fill:#d6a35e;}.cls-9{fill:#8a531d;}.cls-10{fill:#7a4410;}.cls-11{fill:#61a308;}.cls-12,.cls-15,.cls-22{mix-blend-mode:multiply;}.cls-14{fill:#d14711;}.cls-15{fill:#ebe0d3;}.cls-16{fill:#999;}.cls-17,.cls-20{fill:#333;}.cls-18{fill:#4d4d4d;}.cls-19{fill:#666;}.cls-21{fill:#f2f2f2;}</style></defs><title>Asset 4</title><g class="cls-1"><g id="Layer_2" data-name="Layer 2"><g id="Layer_2-2" data-name="Layer 2"><path class="cls-2" d="M131.43,105.62c-1.26,2.57-4.94,7.77-9.16,13.09-6.26,7.92-15.44,14.63-17.9,14.78a15.62,15.62,0,0,0-3.43,1.79c-7.12,4.32-23,15.31-28,20.44-2.2,2.23-5.41,11.34-5.41,11.34l-5.54,1.67-.58-16.79s5.71,0,7.4-1c5.75-3.41,15.57-19.92,20.89-23.71a19.2,19.2,0,0,1,6-2.66,33.92,33.92,0,0,1,5.55-1.08c4.47-9.31,8.3-17.91,12.18-23.57a28.18,28.18,0,0,1,2.57-3.28Z"/><path class="cls-3" d="M60.9,168.58c-.38-1.6.32-4.67-.62-7.42-.52-1.54-2.2-10.35-1-10.54l1.48-.24,1.65,10.23,1.26,7.82,3.52,7.49C63.6,176.5,61.64,171.72,60.9,168.58Z"/><path class="cls-4" d="M67.17,175.92c-2.27.37-4.58-5.5-4.92-7.77-.28-1.86.44-5.68.14-7.54l-.65-4c-.47-3-1-6.21-1-6.21l4.61-.13h2.78c.55,0,.43,1.26.13,1.77-.71,1.25-1.82,1.64-1.63,2.83a5.27,5.27,0,0,0,2.22,3.23c.76.62,1.45,1.11,1.55,1.71.16,1.06-1.71,11.54-1.81,12C68.09,174.1,68,175.78,67.17,175.92Z"/><path class="cls-5" d="M61.74,156.59c-.47-3-1-6.21-1-6.21l4.61-.13C65.72,153.25,64.16,156,61.74,156.59Z"/><path class="cls-4" d="M69.91,159.52l1.88.4a.35.35,0,0,1,.25.44l-3.27,10.43Z"/><path class="cls-5" d="M68.59,171.78a1.31,1.31,0,0,1-1.41-1.06c-.17-1,.51-5.63,1.67-12.65.76.62,1.45,1.11,1.55,1.71C70.56,160.84,68.69,171.32,68.59,171.78Z"/><path class="cls-6" d="M69.2,160.53a.33.33,0,0,1,.12-.32.35.35,0,0,1,.48,0l1.81,2.11a.35.35,0,0,1-.53.45l-1.8-2.11A.38.38,0,0,1,69.2,160.53Z"/><path class="cls-6" d="M68.79,162.51a.34.34,0,0,1,.11-.31.35.35,0,0,1,.49,0L71,164.17a.34.34,0,0,1-.52.44l-1.65-1.93A.3.3,0,0,1,68.79,162.51Z"/><path class="cls-6" d="M68.47,164.61a.33.33,0,0,1,.12-.32.35.35,0,0,1,.48,0l1.4,1.64a.35.35,0,0,1,0,.49.36.36,0,0,1-.49,0l-1.4-1.64A.38.38,0,0,1,68.47,164.61Z"/><path class="cls-6" d="M68.22,166.78a.34.34,0,0,1,.59-.28l1.1,1.28a.35.35,0,0,1,0,.48.33.33,0,0,1-.48,0L68.29,167A.36.36,0,0,1,68.22,166.78Z"/><path class="cls-6" d="M67.79,168.75a.33.33,0,0,1,.12-.32.34.34,0,0,1,.48,0l1,1.11a.34.34,0,0,1,0,.48.35.35,0,0,1-.49,0l-.15-.18-.8-.94A.35.35,0,0,1,67.79,168.75Z"/><path class="cls-7" d="M131.43,105.62c-1.26,2.57-4.94,7.77-9.16,13.09-6.26,7.92-15.44,14.63-17.9,14.78a15.62,15.62,0,0,0-3.43,1.79c-1.8-3.14-4.17-8.1-5.31-10.68a33.92,33.92,0,0,1,5.55-1.08c4.47-9.31,8.3-17.91,12.18-23.57a28.18,28.18,0,0,1,2.57-3.28Z"/><path class="cls-8" d="M142.5,41.67c3.82-.9,6.06,2.12,6.7,4.49.45,1.67,3.53,14.43,4,16.49.57,2.37.29,12.08-.3,11.7-3.13-2-15-22.64-15.06-26.51A6.49,6.49,0,0,1,142.5,41.67Z"/><path class="cls-2" d="M153.53,57.71c.12,1.84-2.08,3.85-4.33,6.36L138.38,80.75l-16.53-6.37S126,69.92,126,68c0-2.11-.29-5.92-.66-9.86-.62-6.53-1.44-13.41-1.44-13.41L135.41,31.9l9,5.89c1,7.08,5.65,10.33,7.91,15.21A13,13,0,0,1,153.53,57.71Z"/><path class="cls-2" d="M152.83,62.89c-.79,3-.91,11.46.09,11.46,1.7,0,4.66-3.1,6.28-5.27,3-4,9.06-19.41,9.06-19.41H162.6C162.8,53.4,153.82,59.16,152.83,62.89Z"/><path class="cls-2" d="M169.83,35.54a.84.84,0,0,0-.84-.85h0a.86.86,0,0,0-.85.85V37l0,3.19a.22.22,0,0,1-.21.21h0a.21.21,0,0,1-.21-.21l.05-6.22a.83.83,0,0,0-.84-.85h0A.84.84,0,0,0,166,34L166,40.19a.2.2,0,0,1-.21.2h0a.2.2,0,0,1-.2-.21l.05-7.21a.85.85,0,0,0-.84-.85h0a.85.85,0,0,0-.86.84l-.05,7.2a.23.23,0,0,1-.21.22h0a.22.22,0,0,1-.21-.21l.05-6.23a.83.83,0,0,0-.84-.84h0a.83.83,0,0,0-.86.83l0,6.43,0,1.77.94,7.54,5.63.08,1.47-3.49a7.91,7.91,0,0,0,.1-1.44c.06-2,0-4.4,0-4.4Z"/><path class="cls-8" d="M161.67,45l3.56,2.86a5,5,0,0,1,3.35-2.83V42.56a1.61,1.61,0,0,0-1.87-1.6,9.79,9.79,0,0,1-5-.83Z"/><path class="cls-2" d="M162.64,44.64l-.57-4.07c-.31-.91-.93-1.52-1.85-1.21h0c-.23.07-.3.27-.27.55l.41,5.72s1.92,4.92,3.19,4.48A2.4,2.4,0,0,0,165,46.78C164.61,45.54,162.64,44.64,162.64,44.64Z"/><path class="cls-2" d="M168,123.71c-.88,2.08-3.22,6.93-6,12.51-3.95,8-8.76,17.48-11.32,22.51a5.39,5.39,0,0,0,1,6.33l8.28,8.08-3.17,2.56-11-5.12L138.87,168l4.39-7.7c3.34-6.28,3.35-18.81,4.82-24.25a21.42,21.42,0,0,1,1.36-3.56,52.42,52.42,0,0,1,6.41-9.74s-13.36-6.26-18.16-9.65c-3.16-2.23-12.31-10.51-15.21-11.37-3.47-1-9.6-3.6-9.6-11.66,0-3.5,2.27-7.17,4.86-10.55,1.38-1.82,2.85-3.56,4.11-5.14l16.53,6.37-.31,6.6L137.9,91s8.47,6.06,14,10.55C156.91,105.59,169.2,120.7,168,123.71Z"/><path class="cls-3" d="M153.58,176c-1.56-.53-3.8-2.74-6.63-3.39-1.58-.37-9.95-3.59-9.49-4.7l.58-1.38,9.55,4,7.31,3.06,8.22,1C161.73,177.83,156.64,177,153.58,176Z"/><path class="cls-4" d="M163.12,174.49c-.88,2.12-7.08,1-9.19.08-1.73-.75-4.59-3.37-6.34-4.1l-3.75-1.57-5.8-2.42,2.32-4,1.45-2.37c.28-.48,1.3.3,1.58.82.69,1.26.43,2.41,1.54,2.88a5.24,5.24,0,0,0,3.92-.19c.92-.32,1.7-.64,2.27-.4,1,.41,8.89,7.53,9.24,7.86C162.06,172.74,163.46,173.69,163.12,174.49Z"/><path class="cls-5" d="M143.84,168.9l-5.8-2.42,2.32-4C143.1,163.76,144.59,166.52,143.84,168.9Z"/><path class="cls-4" d="M150.64,163.51l1.33-1.38a.35.35,0,0,1,.51,0l7.13,8.28Z"/><path class="cls-5" d="M160.36,171.1a1.31,1.31,0,0,1-1.65.64c-1-.41-4.51-3.41-9.86-8.1.92-.32,1.7-.64,2.27-.4C152.1,163.65,160,170.77,160.36,171.1Z"/><path class="cls-6" d="M151.12,164.64a.33.33,0,0,1-.21-.26.34.34,0,0,1,.29-.39l2.75-.42a.34.34,0,0,1,.1.68l-2.75.41A.28.28,0,0,1,151.12,164.64Z"/><path class="cls-6" d="M152.59,166a.34.34,0,0,1,.08-.65l2.51-.39a.34.34,0,0,1,.39.29.35.35,0,0,1-.28.39l-2.52.38A.36.36,0,0,1,152.59,166Z"/><path class="cls-6" d="M154.2,167.41a.35.35,0,0,1-.21-.26.36.36,0,0,1,.29-.39l2.14-.33a.35.35,0,0,1,.39.29.34.34,0,0,1-.29.39l-2.13.33A.31.31,0,0,1,154.2,167.41Z"/><path class="cls-6" d="M155.91,168.78a.36.36,0,0,1-.21-.27.35.35,0,0,1,.29-.39l1.66-.25a.34.34,0,0,1,.39.29.35.35,0,0,1-.28.39l-1.67.25A.37.37,0,0,1,155.91,168.78Z"/><path class="cls-6" d="M157.36,170.18a.36.36,0,0,1-.21-.27.34.34,0,0,1,.29-.39l1.44-.22a.35.35,0,0,1,.4.28.36.36,0,0,1-.29.4l-.23,0-1.22.19A.36.36,0,0,1,157.36,170.18Z"/><path class="cls-9" d="M141.62,7l-.1.17-5.06,7.48a12.41,12.41,0,0,1-1.9,5.13c-2.18,3.45-5.84,6-9.08,4.49a7.3,7.3,0,0,0,2.87-4.69c1.26-6.58-.06-9.79.56-13,1-5.1,4.77-7.09,8.15-6.44C143,1.25,142.53,5.51,141.62,7Z"/><path class="cls-10" d="M141.77,6.55l-.15.45-.1.17-5.06,7.48a12.41,12.41,0,0,1-1.9,5.13c0-6-1.26-8.64-1.25-11.63,0-4.78,2.3-7.22,4.62-7.21C142.15,1,142.25,5.2,141.77,6.55Z"/><path class="cls-11" d="M143,3.53c1.15,1,1,3-.28,4.56s-3.28,2-4.43,1.07-1-3,.28-4.55S141.86,2.57,143,3.53Z"/><path class="cls-2" d="M159.26,26.68,157,30.76a2,2,0,0,1-2.93.66L150.65,29l-6.23,8.83-9-5.89L138.27,30a2.66,2.66,0,0,0,1.22-2.33v0a6.89,6.89,0,0,0-.86-2.94l-.33-.62a16.76,16.76,0,0,1-2-10.84c1.54-8,8.34-11.65,16.2-10.14a12.38,12.38,0,0,1,9.42,8.4,12.11,12.11,0,0,1,.42,5.7c-.1.51-.3.6-.9,1a1.11,1.11,0,0,0-.56,1.44l1.39,5a1.29,1.29,0,0,1-.93,1.6Z"/><path class="cls-8" d="M150.65,29l-9.11,8.53-6.13-5.59L138.27,30a2.66,2.66,0,0,0,1.22-2.33v0a7,7,0,0,0-1.19-3.48v-.08l4.79-6.14,3.73,3.43-.36,1.88a3.54,3.54,0,0,0,1.29,3.45Z"/><path class="cls-9" d="M139.42,27.63a6.57,6.57,0,0,0-.85-2.91c-1.53-2.76-3.18-7-2.32-11.51,1.48-7.68,8-11.78,16.28-10.2A12.56,12.56,0,0,1,162,11.46l0,0,0,0c-.92.9-3,1.17-5.46.7a13.68,13.68,0,0,1-3.8-1.31c-.64,3.48-1.53,5.56-2.72,6.38a2.12,2.12,0,0,1-1.64.33h0a3.41,3.41,0,0,1-1.15-.47l-.64,3.31c-1.52,3.82-3.89,6.24-7.07,7.22l-.08,0Z"/><path class="cls-2" d="M146.81,21.35l-.76-.32A3.43,3.43,0,0,1,144,17.22l.12-.6a1.8,1.8,0,0,1,2.1-1.43l.29.06a1.45,1.45,0,0,1,1.15,1.69Z"/><path class="cls-2" d="M92.9,84.72a.85.85,0,0,0,.63,1h0a.85.85,0,0,0,1-.62l.35-1.44.77-3.1a.2.2,0,0,1,.25-.15h0a.21.21,0,0,1,.15.26l-1.48,6a.83.83,0,0,0,.62,1h0a.85.85,0,0,0,1-.61l1.48-6a.21.21,0,0,1,.25-.15h0a.21.21,0,0,1,.15.26l-1.72,7a.85.85,0,0,0,.62,1h0a.85.85,0,0,0,1-.61l1.71-7a.21.21,0,0,1,.26-.16h0a.22.22,0,0,1,.15.25l-1.49,6a.83.83,0,0,0,.62,1h0a.86.86,0,0,0,1-.62l2.06-8.56.16-7.22-4.89-1.13L95.5,74.32a9.37,9.37,0,0,0-.43,1.38c-.52,2-1,4.28-1,4.28Z"/><path class="cls-2" d="M102.86,78.88l1.08,4c.43.86,1.12,1.39,2,1h0c.22-.11.26-.31.2-.58L105,77.59s-.71-3.79-2.36-3.92c-2.14-.18-2.08,2.62-1.67,3.45A4.26,4.26,0,0,0,102.86,78.88Z"/><g class="cls-12"><path class="cls-13" d="M113.27,100a23,23,0,0,1,2.59-3.39l0-.06,15.65,9,0,.09c-1.22,2.47-4.82,7.61-9.17,13.1l-.1.13Z"/></g><path class="cls-7" d="M168,123.71c-.88,2.08-3.69,7.88-6.44,13.46-3.67.36-10.27-2-12.07-4.68a52.42,52.42,0,0,1,6.41-9.74s-13.36-6.26-18.16-9.65c-3.16-2.23-12.31-10.51-15.21-11.37-3.47-1-9.6-3.6-9.6-11.66,0-3.5,2.27-7.17,4.86-10.55,1.38-1.82,2.85-3.56,4.11-5.14l16.53,6.37-.31,6.6L137.9,91s8.47,6.06,14,10.55C156.91,105.59,169.2,120.7,168,123.71Z"/><path class="cls-14" d="M153.53,57.74c.12,1.84-2.08,3.85-4.34,6.36L138.38,80.77l-.32,6.61c-3.69-2.68-14.14-8-20.33-7.84,1.38-1.81,2.86-3.55,4.11-5.13,0,0,4.16-4.46,4.16-6.41,0-2.11-.3-5.91-.66-9.85-.62-6.53-1.45-13.41-1.45-13.41L125,43.51c.7,2.39,2.09,4.42,5.53,4.42,6,0,10.86-13,10.9-12.83,1.06,4.59,4.21,16.74,9.21,18.08a2.19,2.19,0,0,0,1.68-.15A12.76,12.76,0,0,1,153.53,57.74Z"/><path class="cls-15" d="M140.24,40.41l-14.9,17.71c-.62-6.53-1.44-13.41-1.44-13.41l4.5-5Z"/><path class="cls-2" d="M141.63,36.52c0,3.55-2.63,5.55-5.19,6.26-1.82.5-17.44,3.76-20.93,4.55C113.7,53,104.42,63,102.64,72.37l-4.89-1.13c2.61-12,6.57-26.18,8.11-27,4-2.22,25.07-13.48,29.94-13.48A5.93,5.93,0,0,1,141.63,36.52Z"/><path class="cls-16" d="M193.11,54l.13.13,3.17,3.37a1.53,1.53,0,0,0,.79.44,1.58,1.58,0,0,0,1.49-.39L217.2,40.06a1.5,1.5,0,0,0,.06-2.13l-3.36-3.57Z"/><polygon class="cls-3" points="193.11 53.97 193.15 52.58 212.49 34.32 213.89 34.36 193.11 53.97"/><rect class="cls-16" x="12.81" y="181.58" width="208.93" height="11.95"/><rect class="cls-17" x="12.81" y="176.86" width="208.93" height="4.72"/><path class="cls-18" d="M1.45,202.25H22l10.05-8.65L30.2,177.43a4.67,4.67,0,0,0-5.52-4.05l-20.89,4A4.68,4.68,0,0,0,0,182.3Z"/><polygon class="cls-19" points="178.28 66.2 179.72 70.11 220.01 198.18 229.48 198.18 189.18 70.11 187.75 66.2 178.28 66.2"/><path class="cls-18" d="M111.31,202.25H229.47a2.66,2.66,0,0,0,2.66-2.66v-7.2a2.66,2.66,0,0,0-2.66-2.65H107.36a2.47,2.47,0,0,0-2.47,2.47v3.62A6.42,6.42,0,0,0,111.31,202.25Z"/><path class="cls-20" d="M146.28,60.2h24.8v6.64h-24.8a1.15,1.15,0,0,1-1.15-1.15V61.35A1.15,1.15,0,0,1,146.28,60.2Z"/><path class="cls-19" d="M146.28,60.92h24.8v2.33h-24.8a1.16,1.16,0,0,1-1.15-1.16v0A1.15,1.15,0,0,1,146.28,60.92Z"/><g class="cls-12"><path class="cls-6" d="M193.24,54.1l3.17,3.37a1.53,1.53,0,0,0,.79.44c3.38-3,6.7-6.25,9-8.57a1.12,1.12,0,0,0,0-1.62L204,45.49a1.17,1.17,0,0,0-1.63,0C199.72,48.15,196.36,51.32,193.24,54.1Z"/></g><path class="cls-3" d="M171.08,66.38h15.44c3.49,0,15.33-11.32,21.09-17a1.15,1.15,0,0,0,0-1.63L205.4,45.5a1.14,1.14,0,0,0-1.62,0c-5.94,5.86-15.25,14.29-17.61,15.45H171.08Z"/><path class="cls-21" d="M171.08,63.52h15.44c2.89,0,16.72-13.53,19.25-16a.56.56,0,0,0,0-.79l-.48-.48a.56.56,0,0,0-.79,0c-6.52,6.49-16.23,15.27-18,15.51H171.08Z"/><polygon class="cls-22" points="178.28 66.2 179.72 70.11 189.18 70.11 187.75 66.2 178.28 66.2"/></g></g></g></svg>